<svg width="418" height="386" viewBox="0 0 418 386" fill="none" xmlns="http://www.w3.org/2000/svg">
<path d="M168 489.54C295.639 489.54 399.11 429.801 399.11 356.11C399.11 282.419 295.639 222.68 168 222.68C40.3615 222.68 -63.11 282.419 -63.11 356.11C-63.11 429.801 40.3615 489.54 168 489.54Z" fill="url(#paint0_linear_10_293)"/>
<path d="M198.94 467.1C183.65 467.1 168.8 459.47 150.73 449.04C145.73 446.15 104.42 422.51 70.64 403.19C66.9748 401.09 63.9286 398.06 61.8093 394.406C59.69 390.753 58.5726 386.604 58.57 382.38V369.72C58.6037 369.27 58.8064 368.849 59.1375 368.542C59.4685 368.234 59.9034 368.064 60.355 368.064C60.8066 368.064 61.2415 368.234 61.5725 368.542C61.9036 368.849 62.1063 369.27 62.14 369.72V382.38C62.1426 385.974 63.0934 389.505 64.8966 392.614C66.6998 395.724 69.2915 398.302 72.41 400.09C106.19 419.42 147.51 443.09 152.51 445.95C180.14 461.9 198.67 470.56 223.12 456.45C231.6 451.55 235.51 446.31 234.43 441.3C233.64 437.67 230.33 434.42 226.11 432.09C226.812 434.301 226.724 436.687 225.86 438.84C222.41 447.45 206.42 451.51 196.55 448.37C189.55 446.13 185.67 441.29 186.75 436.06C188.1 429.5 197.54 423.23 215.09 424.95C215.55 424.95 216.01 425.05 216.48 425.12C211.862 421.459 206.827 418.358 201.48 415.88C176.83 403.88 160.28 396.4 150.73 392.25C147.97 391.06 146.32 389.09 146.19 386.86C146.06 384.63 147.33 382.86 149.63 381.49L217.63 342.23C223.17 339.03 235.88 342.23 238.49 346.44C239.43 347.97 239.49 350.22 236.87 351.95C231.62 355.4 197.97 375.1 178.38 386.54C178.235 386.619 178.103 386.72 177.99 386.84C178.107 386.97 178.246 387.078 178.4 387.16C179.13 387.513 179.929 387.697 180.74 387.697C181.55 387.697 182.35 387.513 183.08 387.16L236.45 355.52C238.481 354.446 240.728 353.839 243.024 353.746C245.32 353.653 247.608 354.074 249.72 354.98C256.15 357.89 268.72 363.74 291.97 375.09C302.51 380.23 308.66 384.95 311.97 389.09C319.48 391.62 326.18 396.52 327.52 402.7C328.52 407.28 326.93 414.33 313.75 421.94L297.82 431.14C297.41 431.376 296.924 431.44 296.467 431.317C296.01 431.194 295.621 430.895 295.385 430.485C295.149 430.075 295.085 429.588 295.208 429.132C295.331 428.675 295.63 428.286 296.04 428.05L311.97 418.85C320.97 413.68 325.1 408.36 324.04 403.45C323.24 399.76 319.53 396.45 314.86 394.16C315.675 396.459 315.622 398.977 314.71 401.24C311.26 409.85 295.28 413.91 285.41 410.77C278.41 408.53 274.53 403.69 275.61 398.46C276.96 391.9 286.4 385.63 303.94 387.35C304.4 387.35 304.86 387.45 305.33 387.51C300.714 383.849 295.679 380.75 290.33 378.28C267.09 366.96 254.58 361.12 248.17 358.22C246.577 357.55 244.858 357.234 243.132 357.295C241.405 357.355 239.712 357.79 238.17 358.57L184.8 390.21C183.521 390.88 182.099 391.23 180.655 391.23C179.211 391.23 177.789 390.88 176.51 390.21C175.87 389.893 175.327 389.411 174.936 388.813C174.546 388.215 174.323 387.523 174.29 386.81C174.322 386.102 174.541 385.414 174.926 384.819C175.311 384.223 175.847 383.74 176.48 383.42C210.26 363.7 230.97 351.42 234.81 348.93C235.34 348.58 235.43 348.36 235.43 348.36C235.43 348.36 234.83 347.36 232.7 346.42C228.7 344.56 222.08 343.68 219.31 345.28L151.31 384.54C150.22 385.17 149.61 385.93 149.65 386.62C149.69 387.31 150.65 388.32 152.05 388.94C161.63 393.11 178.24 400.6 202.94 412.64C213.61 417.84 219.78 422.64 223.09 426.8C230.17 429.39 236.44 434.3 237.78 440.51C238.78 445.16 237.35 452.23 224.78 459.51C215.72 464.84 207.27 467.1 198.94 467.1ZM209.41 428.22C197.95 428.22 191.17 432.22 190.24 436.78C189.54 440.16 192.38 443.3 197.63 444.97C205.76 447.56 219.83 444.28 222.55 437.51C223.48 435.19 222.92 432.6 220.99 429.86C218.965 429.17 216.868 428.711 214.74 428.49C212.86 428.31 211.08 428.22 209.41 428.22ZM298.34 390.62C286.89 390.62 280.11 394.62 279.18 399.18C278.48 402.56 281.31 405.7 286.57 407.37C294.7 409.96 308.77 406.68 311.49 399.91C312.43 397.56 311.84 394.91 309.85 392.15C307.84 391.527 305.773 391.105 303.68 390.89C301.8 390.71 300.02 390.62 298.34 390.62Z" fill="#455A64"/>
<path d="M154.11 189.8C153.74 189.95 153.37 190.09 153.02 190.27C152.67 190.45 152.45 190.57 152.18 190.72C151.91 190.87 151.5 191.11 151.18 191.32C150.86 191.53 150.65 191.69 150.39 191.89C150.13 192.09 149.78 192.37 149.48 192.63C149.18 192.89 149 193.06 148.77 193.29C148.54 193.52 148.21 193.86 147.94 194.16C147.67 194.46 147.51 194.67 147.3 194.93C147.09 195.19 146.8 195.59 146.56 195.93C146.32 196.27 146.19 196.47 146.02 196.75L145.9 196.95C145.71 197.27 145.53 197.6 145.36 197.95C145.3 198.05 145.25 198.15 145.2 198.25C145.06 198.52 144.92 198.8 144.8 199.08C144.68 199.36 144.58 199.58 144.48 199.83C144.38 200.08 144.34 200.14 144.28 200.31L144.1 200.76C143.98 201.08 143.87 201.41 143.77 201.76C143.67 202.11 143.58 202.34 143.5 202.63C143.35 203.16 143.2 203.7 143.08 204.26C142.987 204.633 142.907 205.013 142.84 205.4C142.84 205.61 142.76 205.81 142.72 206.03C142.68 206.25 142.64 206.48 142.61 206.72C142.52 207.28 142.46 207.87 142.4 208.46C142.4 208.74 142.33 209.01 142.31 209.29C142.31 209.4 142.31 209.5 142.31 209.61C142.24 210.61 142.2 211.55 142.2 212.56C142.229 216.632 142.715 220.687 143.65 224.65C147.37 241 158 257.9 171 267.57C172.523 268.722 174.112 269.784 175.76 270.75L176.44 271.12C176.82 271.33 177.2 271.55 177.58 271.74L178.45 272.17L179.39 272.62L180.34 273.03L181.17 273.37C181.5 273.5 181.82 273.62 182.17 273.73L182.96 274L183.91 274.3L184.75 274.52L185.61 274.74L186.75 274.96L187.28 275.06L187.73 275.11L194.55 271.19C190.324 270.512 186.267 269.028 182.6 266.82C164 256.1 149 230 149 208.6C149 199.91 151.48 193.33 155.66 189.27L155 189.46C154.69 189.56 154.4 189.68 154.11 189.8Z" fill="#263238"/>
<path d="M160.13 182.56C159.091 182.923 158.087 183.378 157.13 183.92L150.34 187.84C153.329 186.149 156.696 185.238 160.13 185.19V182.56Z" fill="#37474F"/>
<path d="M187.29 275.06L186.76 274.96L185.62 274.74L184.76 274.52L184.2 274.38L183.92 274.3L183 274L182.21 273.73L181.21 273.37L180.38 273.03L179.43 272.62L178.49 272.17L177.62 271.74C177.24 271.55 176.85 271.33 176.46 271.11C176.25 270.99 176.03 270.89 175.81 270.76C174.222 269.825 172.686 268.804 171.21 267.7C166.976 264.546 163.139 260.893 159.78 256.82C156.879 253.324 154.276 249.591 152 245.66C148.24 239.214 145.44 232.254 143.69 225L143.63 224.66C142.697 220.704 142.21 216.655 142.18 212.59C142.18 211.65 142.18 210.74 142.28 209.84C142.28 209.71 142.28 209.58 142.28 209.45C142.275 209.36 142.275 209.27 142.28 209.18C142.34 208.43 142.42 207.69 142.53 206.97L142.59 206.51C142.59 206.27 142.68 206.05 142.72 205.81C142.76 205.57 142.85 205.15 142.92 204.81C142.99 204.47 143.06 204.11 143.14 203.81C143.22 203.51 143.34 203.09 143.45 202.73C143.45 202.59 143.52 202.45 143.56 202.32C143.6 202.19 143.56 202.21 143.61 202.16C143.7 201.87 143.79 201.57 143.89 201.28C143.99 200.99 144.15 200.6 144.29 200.28C144.43 199.96 144.63 199.41 144.83 198.99C145.03 198.57 145.12 198.41 145.27 198.12L145.45 197.78C145.61 197.48 145.78 197.19 145.95 196.9C146.12 196.61 146.28 196.39 146.45 196.14L146.68 195.81C146.8 195.62 146.93 195.44 147.06 195.27L147.37 194.88C147.46 194.77 147.54 194.65 147.64 194.54L148.19 193.91L148.38 193.72C148.61 193.48 148.84 193.24 149.09 193.01C149.2 192.91 149.33 192.82 149.44 192.73C149.74 192.47 150.04 192.22 150.35 191.99C150.66 191.76 150.87 191.6 151.14 191.42C151.41 191.24 151.8 191.01 152.14 190.82C152.48 190.63 152.69 190.51 152.98 190.37C153.27 190.23 153.7 190.05 154.07 189.9C154.44 189.75 154.65 189.66 154.95 189.56C155.25 189.46 155.4 189.42 155.63 189.35L156.14 189.22C156.44 189.15 156.74 189.06 157.05 189C157.36 188.94 157.93 188.86 158.37 188.81C158.81 188.76 158.96 188.72 159.27 188.7C159.58 188.68 159.81 188.7 160.09 188.7V185.34C156.656 185.388 153.289 186.299 150.3 187.99C149.88 188.24 149.47 188.5 149.06 188.78L148.85 188.92C147.681 189.753 146.605 190.708 145.64 191.77L145.31 192.13C145.02 192.46 144.74 192.8 144.46 193.13L144.22 193.48C143.757 194.104 143.326 194.752 142.93 195.42C142.79 195.67 142.64 195.92 142.5 196.18C142.36 196.44 142.15 196.84 141.98 197.18C141.81 197.52 141.66 197.87 141.5 198.18C141.34 198.49 141.2 198.88 141.06 199.24C140.84 199.8 140.64 200.38 140.45 200.97C140.37 201.25 140.28 201.54 140.2 201.83C140.06 202.33 139.93 202.83 139.8 203.36C139.74 203.62 139.68 203.87 139.63 204.13C139.463 204.89 139.323 205.67 139.21 206.47C139.21 206.67 139.16 206.87 139.14 207.06C139.05 207.74 138.98 208.42 138.93 209.06C138.93 209.31 138.93 209.56 138.88 209.81C138.82 210.7 138.79 211.6 138.79 212.52C138.872 218.452 139.818 224.341 141.6 230C142.515 232.997 143.603 235.939 144.86 238.81C145.527 240.263 146.193 241.7 146.86 243.12C149.024 247.389 151.536 251.473 154.37 255.33C160 262.98 166.79 269.47 174.09 273.68C176.988 275.406 180.097 276.75 183.34 277.68L187.7 275.18L187.29 275.06Z" fill="#455A64"/>
<path d="M221.51 241.11C221.51 221.55 207.78 197.77 190.84 187.99C182.34 183.09 174.66 182.64 169.11 185.87C167.42 186.87 156.11 193.38 154.38 194.35C148.8 197.54 145.38 204.42 145.38 214.23C145.38 233.79 159.11 257.57 176.05 267.35C184.53 272.25 192.21 272.7 197.76 269.48C199.46 268.48 210.86 261.94 212.57 260.95C218.08 257.75 221.51 250.88 221.51 241.11Z" fill="#781B8A"/>
<path opacity="0.3" d="M221.51 241.11C221.51 221.55 207.78 197.77 190.84 187.99C182.34 183.09 174.66 182.64 169.11 185.87C167.42 186.87 156.11 193.38 154.38 194.35C148.8 197.54 145.38 204.42 145.38 214.23C145.38 233.79 159.11 257.57 176.05 267.35C184.53 272.25 192.21 272.7 197.76 269.48C199.46 268.48 210.86 261.94 212.57 260.95C218.08 257.75 221.51 250.88 221.51 241.11Z" fill="black"/>
<path d="M176 196.52C192.93 206.3 206.66 230.09 206.66 249.64C206.66 269.19 193 277.13 176 267.35C159 257.57 145.33 233.79 145.33 214.23C145.33 194.67 159.08 186.74 176 196.52Z" fill="#781B8A"/>
<path d="M189 275.26H189.15C189.67 275.26 190.15 275.32 190.69 275.33H190.94C191.675 275.333 192.41 275.289 193.14 275.2H193.22C193.832 275.119 194.44 275.006 195.04 274.86C195.29 274.81 195.55 274.75 195.8 274.68C196.27 274.55 196.74 274.4 197.2 274.23C197.66 274.06 197.89 273.95 198.2 273.79C198.37 273.72 198.52 273.64 198.68 273.56C200.151 272.816 201.5 271.851 202.68 270.7C200.018 271.434 197.231 271.601 194.5 271.19L187.68 275.11C188.16 275.17 188.58 275.23 189 275.26Z" fill="#263238"/>
<path d="M184.29 190.72C184.464 193.342 185.596 195.808 187.47 197.65C202.08 211.08 212.76 232.88 212.76 251.35C212.76 264.79 207.12 274.35 197.9 277.56C199.078 277.176 200.209 276.66 201.27 276.02L208.06 272.1C215.28 267.94 219.58 259.1 219.58 247.41C219.58 228.95 208.89 207.14 194.28 193.72C192.411 191.875 191.28 189.41 191.1 186.79V159.58L184.29 163.52V190.72Z" fill="#37474F"/>
<path d="M187.47 197.65C185.596 195.808 184.464 193.342 184.29 190.72V163.52L180.93 161.58V192.35C180.939 192.76 180.986 193.169 181.07 193.57L181.13 193.87C181.226 194.298 181.349 194.719 181.5 195.13C181.744 195.768 182.042 196.383 182.39 196.97L182.67 197.38C182.93 197.794 183.224 198.185 183.55 198.55C183.748 198.778 183.962 198.992 184.19 199.19C185 199.9 185.79 200.64 186.57 201.39L187.19 202C187.87 202.68 188.54 203.37 189.19 204.09L189.49 204.4C190.23 205.21 190.95 206.04 191.67 206.9L192.21 207.56C192.8 208.28 193.38 209.02 193.94 209.76L194.35 210.3C195.02 211.19 195.67 212.11 196.3 213.03L196.74 213.7C197.26 214.47 197.74 215.26 198.25 216.05L198.67 216.73C199.26 217.73 199.82 218.67 200.37 219.66L200.68 220.25C201.13 221.08 201.57 221.92 201.99 222.77L202.38 223.56C202.873 224.567 203.343 225.587 203.79 226.62C203.84 226.76 203.9 226.89 203.95 227.03C204.34 227.94 204.71 228.86 205.07 229.79C205.17 230.07 205.28 230.34 205.38 230.62C205.77 231.62 206.14 232.73 206.47 233.78C206.8 234.83 207.11 235.9 207.39 236.96L207.57 237.64C207.83 238.64 208.07 239.7 208.28 240.73L208.37 241.25C208.557 242.197 208.717 243.137 208.85 244.07C208.85 244.24 208.9 244.42 208.93 244.59C209.06 245.59 209.17 246.59 209.24 247.59C209.24 247.81 209.24 248.03 209.29 248.25C209.35 249.25 209.4 250.31 209.4 251.32C209.4 257.32 208.21 262.32 206.08 266.23C205.623 267.067 205.105 267.869 204.53 268.63C204.25 269 203.96 269.36 203.66 269.7C203.36 270.04 203.05 270.36 202.73 270.7C201.55 271.851 200.201 272.816 198.73 273.56C198.58 273.64 198.42 273.72 198.25 273.79C197.92 273.95 197.58 274.1 197.25 274.23C196.92 274.36 196.39 274.53 195.96 274.65H195.85C195.6 274.72 195.35 274.78 195.09 274.83L194.64 274.95C194.19 275.04 193.73 275.11 193.27 275.17H193.19C192.46 275.259 191.725 275.303 190.99 275.3H190.42C190.02 275.3 189.61 275.3 189.2 275.23H189C188.58 275.23 188.16 275.15 187.73 275.09L183.37 277.59C185.789 278.288 188.292 278.651 190.81 278.67C191.15 278.67 191.48 278.67 191.81 278.62C192.14 278.57 192.72 278.62 193.14 278.55L193.91 278.44C194.4 278.37 194.91 278.3 195.34 278.21C195.57 278.21 195.8 278.11 196.03 278.05L196.31 277.97C196.74 277.86 197.17 277.76 197.59 277.62L197.89 277.53C207.11 274.35 212.75 264.76 212.75 251.32C212.76 232.88 202.08 211.08 187.47 197.65Z" fill="#455A64"/>
<path d="M169 189.24L169.14 189.18C169.222 189.15 169.299 189.11 169.37 189.06L176.19 185.12C176.629 184.84 176.984 184.448 177.218 183.983C177.452 183.518 177.556 182.999 177.52 182.48V151.71L170.71 155.65V186.42C170.759 187.01 170.619 187.601 170.312 188.107C170.005 188.614 169.546 189.01 169 189.24Z" fill="#37474F"/>
<path d="M160.78 185.18C162.417 185.187 164.05 185.341 165.66 185.64C165.858 185.694 166.066 185.7 166.267 185.658C166.468 185.616 166.657 185.527 166.817 185.398C166.977 185.27 167.104 185.105 167.188 184.917C167.272 184.73 167.31 184.525 167.3 184.32V181.26C164.854 181.289 162.43 181.728 160.13 182.56V185.22C160.35 185.21 160.56 185.18 160.78 185.18Z" fill="#37474F"/>
<path d="M161.64 188.56C162.45 188.59 163.258 188.663 164.06 188.78C164.84 188.9 165.64 189.06 166.44 189.26H166.59H166.67C166.927 189.322 167.187 189.365 167.45 189.39H167.52C167.736 189.41 167.954 189.41 168.17 189.39H168.29C168.494 189.356 168.694 189.306 168.89 189.24C169.436 189.01 169.895 188.614 170.202 188.107C170.509 187.601 170.649 187.01 170.6 186.42V155.65L167.24 153.65V184.27C167.25 184.475 167.212 184.68 167.128 184.867C167.044 185.055 166.917 185.22 166.757 185.348C166.597 185.477 166.409 185.566 166.207 185.608C166.006 185.65 165.798 185.644 165.6 185.59C163.99 185.291 162.357 185.137 160.72 185.13C160.5 185.13 160.29 185.13 160.07 185.13V188.49C160.31 188.49 160.54 188.49 160.78 188.49C161.02 188.49 161.37 188.55 161.64 188.56Z" fill="#455A64"/>
<path d="M218.37 259.71C218.37 230.81 198.08 195.71 173.05 181.22C160.55 174 149.24 173.32 141.05 178.04L127.36 185.94C119.18 190.68 114.11 200.81 114.11 215.25C114.11 244.15 134.4 279.25 159.42 293.74C171.92 300.95 183.23 301.64 191.42 296.92L205.1 289C213.3 284.29 218.37 274.15 218.37 259.71Z" fill="#781B8A"/>
<path opacity="0.1" d="M191.466 296.911C209.163 286.693 209.162 253.561 191.464 222.907C173.766 192.253 145.073 175.686 127.376 185.904C109.679 196.121 109.68 229.253 127.378 259.907C145.076 290.561 173.769 307.128 191.466 296.911Z" fill="black"/>
<path d="M204.76 267.58C204.76 238.68 184.47 203.58 159.44 189.09C146.92 181.86 135.59 181.19 127.39 185.94L120.61 189.85C112.39 194.58 107.31 204.73 107.31 219.19C107.31 248.09 127.6 283.19 152.62 297.68C165.14 304.9 176.47 305.58 184.67 300.84L191.49 296.9C199.68 292.17 204.76 282 204.76 267.58Z" fill="#F0F0F0"/>
<path d="M152.62 193C177.62 207.45 197.94 242.59 197.94 271.49C197.94 300.39 177.65 312.1 152.62 297.65C127.59 283.2 107.31 248.06 107.31 219.16C107.31 190.26 127.6 178.58 152.62 193Z" fill="#E0E0E0"/>
<path d="M201.27 271.52C201.27 241.6 180.19 205.09 154.27 190.13C146.64 185.72 139.27 183.49 132.35 183.49C127.619 183.424 122.957 184.63 118.85 186.98C116.59 188.3 107.45 193.53 105.13 194.88C95.83 200.33 90.29 211.79 90.29 227.07C90.29 256.99 111.37 293.5 137.29 308.46C144.92 312.87 152.29 315.1 159.21 315.1C163.973 315.166 168.665 313.943 172.79 311.56C175.01 310.25 184.04 305.09 186.34 303.76C195.7 298.33 201.27 286.85 201.27 271.52Z" fill="#455A64"/>
<path d="M159.21 315.1C152.3 315.1 144.92 312.87 137.29 308.46C111.38 293.46 90.29 256.99 90.29 227.07C90.29 205.37 101.45 191.36 118.72 191.36C125.64 191.36 133.01 193.59 140.64 198C166.55 213 187.64 249.47 187.64 279.39C187.64 301.08 176.48 315.1 159.21 315.1Z" fill="#37474F"/>
<path d="M149.08 284.13C145.185 284.013 141.39 282.867 138.08 280.81C125.14 273.34 114.61 255.11 114.61 240.16C114.61 229.33 120.19 222.33 128.81 222.33C132.687 222.456 136.463 223.597 139.76 225.64C152.7 233.12 163.23 251.35 163.23 266.3C163.28 277.13 157.7 284.13 149.08 284.13Z" fill="#263238"/>
<path d="M91.28 335C91.28 305.08 70.2 268.57 44.28 253.6C36.65 249.2 29.28 246.97 22.37 246.97C17.6385 246.902 12.9757 248.107 8.86999 250.46C6.60999 251.78 -2.54001 257.01 -4.85001 258.36C-14.16 263.81 -19.7 275.27 -19.7 290.54C-19.7 320.46 1.37999 356.98 27.3 371.94C34.93 376.35 42.3 378.58 49.21 378.58C53.9803 378.637 58.6768 377.4 62.8 375C65.03 373.69 74.06 368.53 76.35 367.2C85.71 361.81 91.28 350.33 91.28 335Z" fill="#455A64"/>
<path d="M49.22 378.58C42.31 378.58 34.94 376.35 27.31 371.94C1.38999 356.94 -19.69 320.46 -19.69 290.54C-19.69 268.85 -8.53 254.84 8.75 254.84C15.66 254.84 23.03 257.07 30.66 261.47C56.57 276.47 77.66 312.95 77.66 342.87C77.65 364.56 66.49 378.58 49.22 378.58Z" fill="#37474F"/>
<path d="M74.3 342.87C74.3 313.97 54.01 278.87 28.98 264.38C16.46 257.15 5.12996 256.47 -3.02003 261.22L-9.80004 265.14C-18.01 269.87 -23.1 280.01 -23.1 294.47C-23.1 323.37 -2.81004 358.47 22.22 372.96C34.74 380.19 46.06 380.86 54.22 376.13L61.04 372.19C69.23 367.45 74.3 357.31 74.3 342.87Z" fill="#F0F0F0"/>
<path d="M22.17 268.31C47.17 282.76 67.49 317.9 67.49 346.8C67.49 375.7 47.2 387.41 22.17 373C-2.86003 358.59 -23.15 323.41 -23.15 294.51C-23.15 265.61 -2.86003 253.86 22.17 268.31Z" fill="#E0E0E0"/>
<path d="M67.49 346.8C67.49 317.9 47.2 282.8 22.17 268.31C9.66997 261.09 -1.64003 260.41 -9.83003 265.13L-23.52 273C-31.71 277.74 -36.78 287.88 -36.78 302.31C-36.78 331.21 -16.49 366.31 8.53997 380.8C21.03 388.02 32.34 388.7 40.54 383.98L54.21 376.09C62.41 371.39 67.49 361.25 67.49 346.8Z" fill="#781B8A"/>
<path opacity="0.1" d="M8.53997 276.18C33.54 290.63 53.85 325.77 53.85 354.67C53.85 383.57 33.57 395.28 8.53997 380.83C-16.49 366.38 -36.78 331.24 -36.78 302.34C-36.78 273.44 -16.49 261.73 8.53997 276.18Z" fill="black"/>
<path d="M-24 292.63C-24.37 292.77 -24.74 292.92 -25.1 293.09C-25.46 293.26 -25.66 293.39 -25.93 293.55C-26.2 293.71 -26.61 293.94 -26.93 294.15C-27.25 294.36 -27.46 294.52 -27.72 294.72C-27.98 294.92 -28.33 295.19 -28.63 295.45L-29.35 296.12C-29.63 296.4 -29.9 296.69 -30.17 296.99C-30.44 297.29 -30.61 297.5 -30.82 297.76C-31.03 298.02 -31.31 298.42 -31.55 298.76C-31.79 299.1 -31.92 299.31 -32.09 299.59L-32.21 299.79C-32.4 300.11 -32.58 300.43 -32.76 300.79L-32.91 301.09C-33.05 301.36 -33.19 301.63 -33.32 301.91C-33.45 302.19 -33.53 302.41 -33.63 302.66C-33.73 302.91 -33.77 302.98 -33.83 303.14L-34.01 303.6C-34.13 303.92 -34.24 304.25 -34.35 304.6C-34.46 304.95 -34.53 305.18 -34.61 305.47C-34.77 305.997 -34.91 306.537 -35.03 307.09C-35.12 307.47 -35.2 307.85 -35.27 308.24L-35.39 308.86C-35.39 309.09 -35.47 309.32 -35.5 309.55C-35.59 310.12 -35.65 310.7 -35.71 311.29C-35.71 311.57 -35.78 311.84 -35.8 312.13C-35.8 312.23 -35.8 312.34 -35.8 312.45C-35.87 313.4 -35.91 314.38 -35.91 315.4C-35.8811 319.471 -35.3947 323.527 -34.46 327.49C-30.72 343.87 -20.08 360.77 -7.06003 370.44C-5.53231 371.586 -3.94329 372.647 -2.30004 373.62L-1.62004 373.99L-0.480038 374.61L0.389965 375.04L1.32997 375.48C1.64997 375.63 1.95997 375.76 2.32997 375.89C2.69997 376.02 2.87997 376.13 3.15997 376.23L4.15997 376.6L4.93997 376.87L5.93997 377.16L6.77996 377.39L7.63997 377.6C8.01997 377.69 8.39996 377.76 8.77996 377.83L9.29997 377.93L9.74997 377.98L16.42 374C12.1751 373.333 8.0999 371.848 4.41996 369.63C-14.15 358.91 -29.2 332.86 -29.2 311.41C-29.2 302.73 -26.72 296.15 -22.54 292.09C-22.76 292.15 -22.99 292.2 -23.2 292.27L-24 292.63Z" fill="#263238"/>
<path d="M9.13995 377.89L8.61996 377.79C8.23996 377.72 7.86996 377.65 7.47996 377.56C7.08996 377.47 6.90996 377.42 6.61996 377.35L6.04996 377.21L5.77995 377.12L4.77995 376.83L3.97996 376.56L2.97996 376.19C2.69996 376.09 2.42995 375.97 2.14996 375.85L1.14996 375.45L0.209953 375L-0.660049 374.57L-1.82005 373.94L-2.47005 373.59C-4.0561 372.651 -5.59157 371.63 -7.07005 370.53C-11.3036 367.376 -15.1413 363.723 -18.5 359.65C-21.3884 356.153 -23.9775 352.42 -26.24 348.49C-30.0153 342.027 -32.825 335.046 -34.58 327.77C-34.58 327.66 -34.58 327.55 -34.65 327.43C-35.5457 323.472 -35.9985 319.427 -36 315.37C-36 314.43 -36 313.52 -35.9 312.62C-35.9 312.49 -35.9 312.35 -35.9 312.22C-35.9046 312.13 -35.9046 312.04 -35.9 311.95C-35.84 311.2 -35.76 310.47 -35.65 309.75L-35.59 309.29C-35.59 309.05 -35.5 308.82 -35.46 308.59C-35.42 308.36 -35.33 307.93 -35.27 307.59C-35.21 307.25 -35.13 306.89 -35.04 306.59C-34.95 306.29 -34.84 305.86 -34.74 305.5L-34.62 305.1C-34.6155 305.047 -34.6155 304.993 -34.62 304.94C-34.52 304.64 -34.43 304.35 -34.33 304.06C-34.23 303.77 -34.07 303.37 -33.94 303.06C-33.81 302.75 -33.59 302.19 -33.39 301.78C-33.19 301.37 -33.1 301.2 -32.95 300.91L-32.77 300.56C-32.61 300.27 -32.44 299.97 -32.27 299.69C-32.1 299.41 -31.94 299.18 -31.77 298.93L-31.55 298.59L-31 298L-30.7 297.62C-30.6 297.51 -30.52 297.39 -30.42 297.28C-30.32 297.17 -30.06 296.86 -29.87 296.65L-29.69 296.46L-28.98 295.75C-28.87 295.65 -28.74 295.57 -28.63 295.47C-28.33 295.21 -28.03 294.97 -27.72 294.74C-27.41 294.51 -27.2 294.35 -26.93 294.17C-26.66 293.99 -26.27 293.76 -25.93 293.57C-25.59 293.38 -25.38 293.25 -25.1 293.11C-24.82 292.97 -24.37 292.79 -24 292.65L-23.12 292.3L-22.44 292.1L-22 292C-21.7 291.92 -21.4 291.84 -21.09 291.78C-20.78 291.72 -20.22 291.64 -19.77 291.59C-19.47 291.59 -19.18 291.5 -18.87 291.47C-18.56 291.44 -18.33 291.47 -18.05 291.47V288.11C-21.4841 288.158 -24.8508 289.069 -27.84 290.76C-28.27 291 -28.68 291.27 -29.08 291.54L-29.29 291.69C-30.4622 292.522 -31.5417 293.478 -32.51 294.54L-32.83 294.9C-33.12 295.23 -33.4 295.57 -33.68 295.9C-33.76 296.01 -33.84 296.13 -33.93 296.24C-34.38 296.86 -34.81 297.51 -35.21 298.24L-35.64 298.99C-35.82 299.32 -35.99 299.66 -36.16 299.99C-36.33 300.32 -36.48 300.68 -36.64 301.04C-36.8 301.4 -36.94 301.73 -37.08 302.1C-37.3 302.66 -37.5 303.23 -37.69 303.82C-37.78 304.1 -37.86 304.39 -37.94 304.68C-38.08 305.19 -38.22 305.68 -38.34 306.22L-38.52 306.99C-38.68 307.75 -38.82 308.53 -38.93 309.33C-38.93 309.52 -38.93 309.73 -39 309.92C-39.09 310.59 -39.16 311.27 -39.21 311.92L-39.27 312.67C-39.32 313.56 -39.36 314.46 -39.36 315.38C-39.2892 321.301 -38.3526 327.18 -36.58 332.83C-35.6651 335.824 -34.5766 338.762 -33.32 341.63C-32.6867 343.077 -32.02 344.513 -31.32 345.94C-29.1609 350.212 -26.6488 354.296 -23.81 358.15C-18.18 365.8 -11.39 372.29 -4.09004 376.51C-1.18734 378.227 1.92057 379.571 5.15996 380.51L9.51995 378L9.13995 377.89Z" fill="#455A64"/>
<path d="M39.21 346.21C39.21 326.66 25.48 302.87 8.53996 293.09C0.0399551 288.19 -7.64005 287.74 -13.19 290.98L-27.92 299.45C-33.5 302.64 -36.92 309.53 -36.92 319.33C-36.92 338.89 -23.19 362.67 -6.25005 372.45C2.22995 377.35 9.90995 377.81 15.46 374.58L30.27 366.06C35.78 362.85 39.21 356 39.21 346.21Z" fill="#781B8A"/>
<path opacity="0.3" d="M39.21 346.21C39.21 326.66 25.48 302.87 8.53996 293.09C0.0399551 288.19 -7.64005 287.74 -13.19 290.98L-27.92 299.45C-33.5 302.64 -36.92 309.53 -36.92 319.33C-36.92 338.89 -23.19 362.67 -6.25005 372.45C2.22995 377.35 9.90995 377.81 15.46 374.58L30.27 366.06C35.78 362.85 39.21 356 39.21 346.21Z" fill="black"/>
<path d="M15.4004 374.595C27.3769 367.68 27.377 345.259 15.4007 324.515C3.42441 303.772 -15.9931 292.561 -27.9696 299.476C-39.946 306.39 -39.9461 328.812 -27.9698 349.555C-15.9936 370.299 3.42398 381.509 15.4004 374.595Z" fill="#781B8A"/>
<path d="M9.64735 368.412C18.9832 363.046 19.0164 345.586 9.72145 329.412C0.4265 313.239 -14.6768 304.478 -24.0127 309.843C-33.3485 315.209 -33.3817 332.669 -24.0867 348.842C-14.7918 365.016 0.311476 373.777 9.64735 368.412Z" fill="#263238"/>
<path d="M5.53996 324.33L-8.54004 338.39L-25.35 309.26C-21.06 306.76 -15.1 307.12 -8.54004 310.91C-2.95423 314.342 1.84379 318.915 5.53996 324.33Z" fill="#455A64"/>
<path d="M15.27 352.15C15.27 359.73 12.6 365.07 8.26996 367.53L-8.54004 338.39L5.53996 324.33C11.43 332.74 15.27 343 15.27 352.15Z" fill="#37474F"/>
<path d="M8.28996 367.53C3.99996 370 -2.00004 369.68 -8.54004 365.89C-14.1355 362.469 -18.9304 357.885 -22.6 352.45L-8.54004 338.39L8.28996 367.53Z" fill="#455A64"/>
<path d="M10.86 378.09H11C11.52 378.09 12 378.15 12.54 378.15H12.79C13.54 378.15 14.27 378.1 14.99 378.02H15.07C15.6826 377.946 16.2903 377.836 16.89 377.69C17.14 377.63 17.4 377.58 17.65 377.51C18.12 377.38 18.59 377.22 19.04 377.05C19.49 376.88 19.74 376.77 20.04 376.62L20.52 376.38C21.9928 375.643 23.3422 374.681 24.52 373.53C21.857 374.261 19.0702 374.424 16.34 374.01L9.51001 377.94C10 378 10.44 378.06 10.86 378.09Z" fill="#263238"/>
<path d="M6.14996 293.55C6.32578 296.171 7.45728 298.637 9.32996 300.48C23.93 313.9 34.62 335.71 34.62 354.17C34.62 367.62 28.98 377.17 19.76 380.38C20.9387 380.002 22.0696 379.489 23.13 378.85L29.92 374.93C37.14 370.77 41.44 361.93 41.44 350.24C41.44 331.78 30.75 309.97 16.14 296.55C14.2835 294.7 13.1669 292.235 13 289.62V262.41L6.18996 266.35L6.14996 293.55Z" fill="#37474F"/>
<path d="M9.32998 300.48C7.4573 298.637 6.3258 296.171 6.14998 293.55V266.35L2.78998 264.41V295.18C2.79878 295.587 2.84565 295.992 2.92998 296.39L2.98997 296.7C3.08557 297.128 3.20917 297.548 3.35998 297.96C3.60174 298.595 3.89959 299.208 4.24998 299.79C4.33998 299.94 4.42998 300.07 4.52998 300.21C4.7899 300.621 5.08074 301.013 5.39998 301.38C5.60399 301.606 5.82103 301.819 6.04998 302.02C6.85998 302.72 7.64998 303.46 8.42998 304.22L9.04998 304.83C9.72998 305.51 10.4 306.2 11.05 306.91L11.35 307.23C12.09 308.04 12.81 308.87 13.52 309.72C13.71 309.94 13.89 310.17 14.07 310.39C14.66 311.11 15.24 311.84 15.8 312.59C15.94 312.77 16.08 312.94 16.21 313.12C16.88 314.02 17.52 314.93 18.21 315.86L18.65 316.53C19.17 317.3 19.65 318.08 20.16 318.87L20.58 319.56C21.17 320.56 21.73 321.5 22.28 322.48L22.59 323.08C23.04 323.91 23.48 324.75 23.9 325.6L24.29 326.38C24.78 327.38 25.29 328.38 25.69 329.45C25.75 329.58 25.81 329.72 25.86 329.85C26.2533 330.77 26.6233 331.69 26.97 332.61C27.08 332.89 27.19 333.17 27.29 333.45C27.67 334.5 28.05 335.55 28.38 336.61C28.71 337.67 29.01 338.73 29.3 339.79C29.36 340.01 29.42 340.24 29.47 340.47C29.7433 341.497 29.9833 342.527 30.19 343.56L30.28 344.08C30.47 345.02 30.62 345.96 30.76 346.9C30.76 347.07 30.76 347.24 30.83 347.41C30.97 348.41 31.07 349.41 31.15 350.41C31.15 350.63 31.15 350.85 31.15 351.07C31.21 352.07 31.26 353.12 31.26 354.13C31.26 360.13 30.07 365.18 27.94 369.05C27.4831 369.887 26.965 370.689 26.39 371.45C26.11 371.82 25.82 372.18 25.52 372.52C25.22 372.86 24.91 373.18 24.59 373.52C23.4122 374.671 22.0628 375.633 20.59 376.37L20.11 376.61C19.77 376.76 19.43 376.91 19.11 377.04C18.79 377.17 18.26 377.35 17.83 377.47H17.72C17.47 377.54 17.21 377.59 16.96 377.65L16.51 377.76C16.06 377.85 15.6 377.93 15.14 377.98H15C14.2696 378.064 13.5352 378.107 12.8 378.11H12.23C11.83 378.11 11.42 378.11 11.01 378.04H10.86C10.44 378.04 10.01 377.95 9.58997 377.89L5.22998 380.4C7.64898 381.098 10.1523 381.462 12.67 381.48C13.01 381.48 13.34 381.48 13.67 381.48C14 381.48 14.58 381.48 15 381.41L15.77 381.3C16.26 381.23 16.77 381.16 17.19 381.07L17.89 380.91L18.17 380.83C18.6 380.72 19.03 380.61 19.45 380.48L19.75 380.38C28.97 377.21 34.61 367.62 34.61 354.17C34.62 335.71 23.93 313.9 9.32998 300.48Z" fill="#455A64"/>
<path d="M-5.35 239.7C-6.59 238.99 -8.29 239.09 -10.17 240.18C-12.1623 241.469 -13.8202 243.213 -15.0076 245.268C-16.1949 247.323 -16.8777 249.63 -17 252C-17 254.19 -16.23 255.73 -15 256.43L12.24 272.15L21.84 255.44L-5.35 239.7Z" fill="#781B8A"/>
<path opacity="0.3" d="M-5.35 239.7C-6.59 238.99 -8.29 239.09 -10.17 240.18C-12.1623 241.469 -13.8202 243.213 -15.0076 245.268C-16.1949 247.323 -16.8777 249.63 -17 252C-17 254.19 -16.23 255.73 -15 256.43L12.24 272.15L21.84 255.44L-5.35 239.7Z" fill="black"/>
<path opacity="0.3" d="M-16.17 247.85C-16.6867 249.174 -16.9676 250.579 -17 252C-17 254.19 -16.23 255.73 -15 256.43L12.24 272.15L15.63 266.25L-16.17 247.85Z" fill="black"/>
<path d="M10.27 267.72C10.3942 265.354 11.077 263.052 12.2624 261.001C13.4478 258.95 15.1022 257.208 17.09 255.92C18.95 254.84 20.64 254.73 21.87 255.42C23.1 256.11 23.87 257.66 23.87 259.85C23.742 262.215 23.0588 264.517 21.8757 266.568C20.6926 268.62 19.0428 270.364 17.06 271.66C15.17 272.74 13.47 272.85 12.24 272.13C11.01 271.41 10.27 269.9 10.27 267.72Z" fill="#781B8A"/>
<path opacity="0.2" d="M10.27 267.72C10.3942 265.354 11.077 263.052 12.2624 261.001C13.4478 258.95 15.1022 257.208 17.09 255.92C18.95 254.84 20.64 254.73 21.87 255.42C23.1 256.11 23.87 257.66 23.87 259.85C23.742 262.215 23.0588 264.517 21.8757 266.568C20.6926 268.62 19.0428 270.364 17.06 271.66C15.17 272.74 13.47 272.85 12.24 272.13C11.01 271.41 10.27 269.9 10.27 267.72Z" fill="black"/>
<path d="M13.22 266C13.2929 264.658 13.6813 263.351 14.3537 262.187C15.0261 261.023 15.9636 260.034 17.09 259.3C17.4596 258.972 17.9234 258.769 18.4153 258.719C18.9071 258.67 19.402 258.777 19.8296 259.025C20.2571 259.273 20.5955 259.65 20.7967 260.101C20.9978 260.553 21.0515 261.056 20.95 261.54C20.8766 262.88 20.489 264.184 19.8184 265.346C19.1479 266.508 18.2132 267.496 17.09 268.23C16.7195 268.554 16.2568 268.754 15.7669 268.803C15.2769 268.851 14.7842 268.745 14.3576 268.499C13.9311 268.253 13.592 267.88 13.388 267.432C13.184 266.984 13.1253 266.483 13.22 266Z" fill="#37474F"/>
<path d="M19.14 260.54C19.1592 259.937 19.0177 259.34 18.73 258.81C18.1499 258.844 17.5869 259.019 17.09 259.32C15.9636 260.054 15.0262 261.043 14.3538 262.207C13.6813 263.371 13.2929 264.678 13.22 266.02C13.2059 266.622 13.3471 267.218 13.63 267.75C14.2133 267.717 14.7797 267.542 15.28 267.24C16.4045 266.505 17.3401 265.515 18.0107 264.351C18.6813 263.187 19.0682 261.882 19.14 260.54Z" fill="#263238"/>
<path d="M171.84 137.4C170.61 136.69 168.9 136.79 167.02 137.88C165.035 139.172 163.384 140.914 162.199 142.964C161.014 145.015 160.329 147.315 160.2 149.68C160.2 151.87 160.98 153.4 162.2 154.11L189.43 169.83L199.04 153.12L171.84 137.4Z" fill="#781B8A"/>
<path opacity="0.3" d="M171.84 137.4C170.61 136.69 168.9 136.79 167.02 137.88C165.035 139.172 163.384 140.914 162.199 142.964C161.014 145.015 160.329 147.315 160.2 149.68C160.2 151.87 160.98 153.4 162.2 154.11L189.43 169.83L199.04 153.12L171.84 137.4Z" fill="black"/>
<path opacity="0.3" d="M161 145.54C160.494 146.863 160.216 148.263 160.18 149.68C160.18 151.87 160.96 153.4 162.18 154.11L189.41 169.83L192.81 163.92L161 145.54Z" fill="black"/>
<path d="M187.47 165.42C187.598 163.055 188.281 160.753 189.464 158.702C190.647 156.65 192.297 154.906 194.28 153.61C196.15 152.54 197.84 152.43 199.07 153.12C200.3 153.81 201.07 155.36 201.07 157.55C200.946 159.916 200.263 162.218 199.078 164.269C197.892 166.32 196.238 168.061 194.25 169.35C192.37 170.44 190.67 170.54 189.43 169.83C188.19 169.12 187.47 167.59 187.47 165.42Z" fill="#781B8A"/>
<path opacity="0.2" d="M187.47 165.42C187.598 163.055 188.281 160.753 189.464 158.702C190.647 156.65 192.297 154.906 194.28 153.61C196.15 152.54 197.84 152.43 199.07 153.12C200.3 153.81 201.07 155.36 201.07 157.55C200.946 159.916 200.263 162.218 199.078 164.269C197.892 166.32 196.238 168.061 194.25 169.35C192.37 170.44 190.67 170.54 189.43 169.83C188.19 169.12 187.47 167.59 187.47 165.42Z" fill="black"/>
<path d="M190.42 163.72C190.492 162.378 190.879 161.073 191.549 159.909C192.22 158.745 193.155 157.755 194.28 157.02C194.67 156.74 195.126 156.567 195.603 156.518C196.08 156.469 196.562 156.545 197 156.74C197.4 157.016 197.718 157.395 197.92 157.837C198.122 158.279 198.202 158.767 198.15 159.25C198.079 160.593 197.691 161.9 197.018 163.064C196.346 164.228 195.407 165.217 194.28 165.95C193.911 166.277 193.448 166.479 192.958 166.528C192.467 166.578 191.974 166.472 191.547 166.225C191.12 165.978 190.782 165.604 190.579 165.154C190.377 164.705 190.321 164.203 190.42 163.72Z" fill="#37474F"/>
<path d="M196.34 158.24C196.354 157.638 196.213 157.042 195.93 156.51C195.347 156.543 194.78 156.718 194.28 157.02C193.154 157.754 192.217 158.744 191.545 159.908C190.872 161.072 190.484 162.378 190.41 163.72C190.394 164.324 190.539 164.921 190.83 165.45C191.41 165.416 191.973 165.241 192.47 164.94C193.596 164.206 194.533 163.216 195.205 162.052C195.878 160.888 196.266 159.582 196.34 158.24Z" fill="#263238"/>
<path d="M192.81 80.6L163.41 63.6C161.528 60.0134 159.268 56.6377 156.67 53.53C172.45 56.28 184.93 65.84 192.81 80.6Z" fill="#781B8A"/>
<path opacity="0.2" d="M192.81 80.6L163.41 63.6C161.528 60.0134 159.268 56.6377 156.67 53.53C172.45 56.28 184.93 65.84 192.81 80.6Z" fill="black"/>
<path d="M187.37 153.78C188.866 145.829 189.639 137.76 189.68 129.67C189.68 74.98 151.29 52.81 103.93 80.16C56.57 107.51 18.17 174 18.17 228.69C18.1238 235.908 18.9021 243.108 20.49 250.15L9.42997 256.54C8.05303 249.41 7.38312 242.162 7.42997 234.9C7.42997 173.35 50.65 98.49 103.96 67.72C157.27 36.95 200.48 61.8899 200.48 123.45C200.463 131.491 199.794 139.517 198.48 147.45L187.48 153.82" fill="#37474F"/>
<path d="M187.38 153.78C188.868 145.825 189.638 137.753 189.68 129.66C189.68 93.59 172.98 71.66 148.01 68.77C155.82 79.19 160.3 94.06 160.3 112.77C160.252 120.839 159.483 128.888 158 136.82L187.38 153.78Z" fill="#263238"/>
<path d="M170.43 60C153.11 51 129.7 52.86 103.93 67.74C50.61 98.49 7.39998 173.34 7.39998 234.91C7.35262 242.165 8.02254 249.407 9.39998 256.53L-19.93 239.59C-21.3369 232.48 -22.0303 225.248 -22 218C-22 156.44 21.21 81.59 74.53 50.81C101.16 35.43 125.26 33.98 142.73 44.05C147.21 46.59 163.7 56.12 170.43 60Z" fill="#455A64"/>
<path d="M174.79 54.09C166.252 49.5099 156.688 47.1768 147 47.31C132.27 47.31 116.56 52.07 100.29 61.45C62.64 83.18 29.79 126.25 12.69 171.66L-16.69 154.66C0.409998 109.25 33.31 66.18 70.91 44.45C87.18 35.07 102.91 30.29 117.62 30.29C127.677 30.1525 137.591 32.6853 146.35 37.63C151 40.37 168.57 50.49 174.79 54.09Z" fill="#781B8A"/>
<path opacity="0.6" d="M174.79 54.09C166.252 49.5099 156.688 47.1768 147 47.31C132.27 47.31 116.56 52.07 100.29 61.45C62.64 83.18 29.79 126.25 12.69 171.66L-16.69 154.66C0.409998 109.25 33.31 66.18 70.91 44.45C87.18 35.07 102.91 30.29 117.62 30.29C127.677 30.1525 137.591 32.6853 146.35 37.63C151 40.37 168.57 50.49 174.79 54.09Z" fill="white"/>
<path d="M192.8 80.5901C183.38 63.0001 167.39 52.7301 147 52.7301C133.23 52.7301 118.42 57.2401 103 66.1501C66.1 87.4501 33.93 129.83 17.39 174.38L12.69 171.66C29.79 126.25 62.64 83.1801 100.29 61.4501C116.56 52.0701 132.29 47.3101 147 47.3101C168.46 47.3101 185.51 57.4501 196 75.0601L192.8 80.5901Z" fill="#781B8A"/>
<path d="M319.05 64.3201L314.15 80.4701C313.748 80.1682 313.298 79.935 312.82 79.7801C311.983 79.5268 311.09 79.5273 310.254 79.7815C309.417 80.0358 308.675 80.5324 308.121 81.2085C307.567 81.8847 307.225 82.71 307.14 83.5801C307.055 84.4502 307.23 85.326 307.643 86.0967C308.055 86.8674 308.687 87.4985 309.459 87.91C310.23 88.3216 311.106 88.4952 311.976 88.4088C312.846 88.3225 313.671 87.9801 314.346 87.425C315.021 86.8698 315.517 86.1269 315.77 85.2901L320.17 70.8201L335.9 71.4001L331.57 85.7501C331.17 85.4442 330.72 85.2107 330.24 85.0601C329.403 84.8067 328.51 84.8073 327.674 85.0615C326.837 85.3158 326.095 85.8124 325.541 86.4885C324.987 87.1647 324.645 87.99 324.56 88.8601C324.475 89.7302 324.65 90.606 325.063 91.3767C325.475 92.1474 326.107 92.7785 326.879 93.19C327.65 93.6016 328.526 93.7752 329.396 93.6888C330.266 93.6025 331.091 93.2601 331.766 92.705C332.441 92.1498 332.937 91.4069 333.19 90.5701L340.42 66.5701L319.05 64.3201Z" fill="#781B8A"/>
<path d="M307.23 311.77L302.33 327.92C301.93 327.614 301.48 327.381 301 327.23C300.163 326.977 299.27 326.977 298.434 327.232C297.597 327.486 296.855 327.982 296.301 328.659C295.747 329.335 295.405 330.16 295.32 331.03C295.235 331.9 295.41 332.776 295.823 333.547C296.235 334.317 296.867 334.948 297.638 335.36C298.41 335.772 299.286 335.945 300.156 335.859C301.026 335.772 301.851 335.43 302.526 334.875C303.201 334.32 303.697 333.577 303.95 332.74L308.35 318.27L324.08 318.85L319.75 333.2C319.35 332.894 318.9 332.661 318.42 332.51C317.583 332.257 316.69 332.257 315.854 332.512C315.017 332.766 314.275 333.262 313.721 333.939C313.167 334.615 312.825 335.44 312.74 336.31C312.655 337.18 312.83 338.056 313.243 338.827C313.655 339.597 314.287 340.228 315.059 340.64C315.83 341.052 316.706 341.225 317.576 341.139C318.446 341.052 319.271 340.71 319.946 340.155C320.621 339.6 321.117 338.857 321.37 338.02L328.59 314.02L307.23 311.77Z" fill="#781B8A"/>
<path d="M276.12 121.59C277.109 121.106 278.189 120.837 279.29 120.8C280.762 120.771 282.232 120.939 283.66 121.3C285.553 121.821 287.492 122.156 289.45 122.3C290.432 122.367 291.417 122.235 292.347 121.912C293.276 121.589 294.131 121.081 294.86 120.42C293.714 120.527 292.558 120.373 291.48 119.97C288.89 118.97 286.81 116.32 284.48 114.84C281.01 112.65 277.58 112.84 273.36 113.9C273.36 117.49 273.29 121.1 273.25 124.7L273.16 133.17C273.16 133.44 273.03 137.02 273.03 137.02C272.051 136.53 270.975 136.263 269.88 136.24C268.681 136.228 267.506 136.572 266.502 137.229C265.499 137.885 264.713 138.824 264.244 139.928C263.774 141.031 263.643 142.249 263.866 143.427C264.089 144.605 264.656 145.69 265.496 146.546C266.336 147.401 267.411 147.988 268.585 148.233C269.759 148.477 270.979 148.368 272.091 147.918C273.202 147.469 274.156 146.7 274.83 145.709C275.505 144.718 275.87 143.549 275.88 142.35L276.12 121.59Z" fill="#781B8A"/>
<path d="M374 273.12C375.086 272.927 376.201 272.968 377.27 273.24C378.69 273.623 380.054 274.188 381.33 274.92C383.007 275.944 384.779 276.804 386.62 277.49C387.546 277.824 388.53 277.968 389.513 277.913C390.495 277.858 391.457 277.605 392.34 277.17C391.207 276.958 390.137 276.493 389.21 275.81C387 274.16 385.74 271.01 383.91 268.94C381.19 265.87 377.85 265.09 373.49 264.94C372.49 268.4 371.43 271.84 370.4 275.29L367.97 283.41L366.77 287.06C365.966 286.319 365.006 285.769 363.96 285.45C362.813 285.101 361.588 285.101 360.441 285.449C359.293 285.797 358.275 286.477 357.514 287.404C356.753 288.331 356.285 289.463 356.168 290.656C356.05 291.849 356.29 293.05 356.856 294.107C357.421 295.165 358.288 296.03 359.346 296.595C360.403 297.159 361.605 297.397 362.798 297.279C363.991 297.16 365.122 296.69 366.048 295.929C366.974 295.167 367.653 294.148 368 293L374 273.12Z" fill="#781B8A"/>
<path d="M230.75 57.44C231.22 56.342 231.919 55.3568 232.8 54.55C233.988 53.4851 235.313 52.5838 236.74 51.87C238.668 50.9515 240.503 49.8498 242.22 48.58C243.074 47.9411 243.79 47.136 244.324 46.2131C244.859 45.2902 245.201 44.2686 245.33 43.21C244.461 44.1026 243.401 44.7865 242.23 45.21C239.42 46.21 235.81 45.5 232.85 45.93C228.44 46.58 225.74 49.15 223.03 53.02C225.58 56.02 228.03 59.02 230.58 62.02L236.51 69.02C236.7 69.24 239.12 72.28 239.12 72.28C237.973 72.5819 236.907 73.1353 236 73.9C235.005 74.7396 234.282 75.8553 233.922 77.106C233.562 78.3567 233.58 79.6862 233.976 80.9263C234.371 82.1663 235.125 83.2613 236.143 84.0727C237.161 84.8841 238.396 85.3754 239.693 85.4846C240.99 85.5937 242.29 85.3157 243.429 84.6858C244.568 84.0559 245.495 83.1023 246.092 81.9458C246.689 80.7892 246.929 79.4815 246.783 78.1882C246.637 76.8949 246.11 75.674 245.27 74.68L230.75 57.44Z" fill="#781B8A"/>
<path d="M319 153.48L292.79 168.62C292.543 168.779 292.337 168.994 292.19 169.248C292.042 169.502 291.956 169.787 291.94 170.08V200.32C291.955 200.612 292.04 200.896 292.188 201.149C292.336 201.401 292.542 201.614 292.79 201.77L295.79 203.5C296.051 203.631 296.338 203.699 296.63 203.699C296.922 203.699 297.209 203.631 297.47 203.5L323.69 188.35C323.934 188.191 324.138 187.977 324.284 187.725C324.43 187.473 324.514 187.191 324.53 186.9V156.61C324.515 156.318 324.43 156.033 324.282 155.781C324.134 155.528 323.928 155.315 323.68 155.16L320.68 153.47C320.418 153.343 320.13 153.277 319.839 153.279C319.548 153.281 319.261 153.35 319 153.48Z" fill="#781B8A"/>
<path d="M296.68 203V172.72C296.696 172.428 296.78 172.143 296.926 171.89C297.072 171.636 297.276 171.421 297.52 171.26L323.74 156.12C324.2 155.85 324.58 156.07 324.58 156.61V186.9C324.564 187.191 324.48 187.473 324.334 187.725C324.188 187.977 323.984 188.191 323.74 188.35L297.52 203.5C297.06 203.76 296.68 203.55 296.68 203Z" fill="#781B8A"/>
<path d="M296.68 203V172.72C296.696 172.428 296.78 172.143 296.926 171.89C297.072 171.636 297.276 171.421 297.52 171.26L323.74 156.12C324.2 155.85 324.58 156.07 324.58 156.61V186.9C324.564 187.191 324.48 187.473 324.334 187.725C324.188 187.977 323.984 188.191 323.74 188.35L297.52 203.5C297.06 203.76 296.68 203.55 296.68 203Z" fill="#781B8A"/>
<path opacity="0.2" d="M297.52 203.5C297.255 203.623 296.967 203.687 296.675 203.687C296.383 203.687 296.095 203.623 295.83 203.5L292.83 201.76C292.582 201.604 292.376 201.391 292.228 201.139C292.08 200.887 291.995 200.602 291.98 200.31V170.08C291.994 169.775 292.087 169.479 292.25 169.22L296.94 171.89C296.783 172.139 296.697 172.426 296.69 172.72V203C296.68 203.5 297 203.78 297.52 203.5Z" fill="black"/>
<path opacity="0.4" d="M324.57 156.46C324.5 156.03 324.16 155.88 323.74 156.12L297.52 171.26C297.275 171.419 297.072 171.635 296.93 171.89L292.24 169.22C292.377 168.972 292.577 168.765 292.82 168.62L319 153.48C319.262 153.346 319.551 153.277 319.845 153.277C320.139 153.277 320.428 153.346 320.69 153.48L323.69 155.17C323.923 155.307 324.122 155.493 324.275 155.716C324.427 155.939 324.528 156.193 324.57 156.46Z" fill="white"/>
<path d="M320.9 173.79C320.9 181.41 316.27 190.27 310.55 193.57C304.83 196.87 300.19 193.37 300.19 185.74C300.19 178.11 304.83 169.26 310.55 165.96C316.27 162.66 320.9 166.16 320.9 173.79Z" fill="#FAFAFA"/>
<path d="M309.15 176.25V185.08C309.137 185.3 309.074 185.513 308.965 185.704C308.855 185.895 308.703 186.058 308.52 186.18L306.82 187.18C306.47 187.38 306.19 187.18 306.19 186.81V178C306.203 177.78 306.266 177.567 306.375 177.376C306.485 177.185 306.637 177.022 306.82 176.9L308.52 175.9C308.86 175.69 309.15 175.85 309.15 176.25Z" fill="#455A64"/>
<path d="M315.08 172.83V181.65C315.067 181.869 315.004 182.083 314.895 182.274C314.785 182.465 314.633 182.628 314.45 182.75L312.75 183.75C312.4 183.95 312.11 183.75 312.11 183.38V174.56C312.124 174.341 312.189 174.128 312.3 173.938C312.411 173.749 312.565 173.589 312.75 173.47L314.45 172.47C314.8 172.26 315.08 172.42 315.08 172.83Z" fill="#455A64"/>
<path d="M349.47 139.66L328.47 151.77C328.275 151.899 328.112 152.072 327.996 152.275C327.88 152.479 327.813 152.706 327.8 152.94V177.13C327.811 177.364 327.879 177.592 327.997 177.794C328.116 177.996 328.281 178.166 328.48 178.29L330.89 179.68C331.099 179.786 331.33 179.842 331.565 179.842C331.8 179.842 332.031 179.786 332.24 179.68L353.24 167.57C353.437 167.442 353.601 167.269 353.719 167.066C353.838 166.863 353.906 166.635 353.92 166.4V142.16C353.905 141.927 353.835 141.701 353.717 141.5C353.599 141.298 353.436 141.127 353.24 141L350.83 139.65C350.619 139.544 350.385 139.489 350.149 139.491C349.912 139.493 349.68 139.551 349.47 139.66Z" fill="#781B8A"/>
<path d="M331.59 179.28V155.05C331.602 154.817 331.669 154.591 331.785 154.389C331.902 154.188 332.064 154.016 332.26 153.89L353.26 141.77C353.63 141.56 353.94 141.77 353.94 142.16V166.39C353.926 166.625 353.858 166.853 353.739 167.056C353.621 167.259 353.457 167.432 353.26 167.56L332.26 179.67C331.89 179.89 331.59 179.71 331.59 179.28Z" fill="#781B8A"/>
<path d="M331.59 179.28V155.05C331.602 154.817 331.669 154.591 331.785 154.389C331.902 154.188 332.064 154.016 332.26 153.89L353.26 141.77C353.63 141.56 353.94 141.77 353.94 142.16V166.39C353.926 166.625 353.858 166.853 353.739 167.056C353.621 167.259 353.457 167.432 353.26 167.56L332.26 179.67C331.89 179.89 331.59 179.71 331.59 179.28Z" fill="#781B8A"/>
<path opacity="0.2" d="M332.26 179.67C332.05 179.773 331.819 179.827 331.585 179.827C331.351 179.827 331.12 179.773 330.91 179.67L328.5 178.28C328.301 178.156 328.136 177.986 328.017 177.784C327.899 177.582 327.831 177.354 327.82 177.12V152.94C327.828 152.696 327.901 152.458 328.03 152.25L331.79 154.39C331.665 154.588 331.596 154.816 331.59 155.05V179.28C331.59 179.68 331.86 179.9 332.26 179.67Z" fill="black"/>
<path opacity="0.4" d="M353.9 142C353.84 141.66 353.57 141.54 353.23 141.73L332.23 153.85C332.033 153.973 331.871 154.145 331.76 154.35L328 152.25C328.111 152.051 328.273 151.885 328.47 151.77L349.47 139.66C349.679 139.554 349.91 139.498 350.145 139.498C350.38 139.498 350.611 139.554 350.82 139.66L353.23 141.01C353.403 141.121 353.552 141.266 353.667 141.436C353.782 141.606 353.862 141.798 353.9 142Z" fill="white"/>
<path d="M348.71 152.85V161.67C348.699 161.89 348.636 162.104 348.527 162.295C348.417 162.487 348.264 162.649 348.08 162.77L346.38 163.77C346.03 163.97 345.74 163.77 345.74 163.41V154.58C345.754 154.361 345.819 154.148 345.93 153.959C346.041 153.769 346.195 153.609 346.38 153.49L348.08 152.49C348.43 152.28 348.71 152.44 348.71 152.85Z" fill="#455A64"/>
<path d="M336.78 159.83V168.47C336.78 169.12 337.12 169.24 337.55 168.76L345.55 159.54C345.98 159.05 345.8 158.66 345.15 158.66H338C337.842 158.653 337.685 158.679 337.537 158.734C337.389 158.79 337.254 158.875 337.14 158.984C337.026 159.094 336.935 159.225 336.874 159.37C336.812 159.516 336.78 159.672 336.78 159.83Z" fill="#455A64"/>
<path d="M282.9 178.1L261.9 190.21C261.702 190.337 261.538 190.51 261.42 190.713C261.301 190.917 261.233 191.145 261.22 191.38V215.57C261.234 215.803 261.302 216.03 261.421 216.232C261.539 216.433 261.703 216.604 261.9 216.73L264.31 218.12C264.519 218.226 264.75 218.282 264.985 218.282C265.22 218.282 265.451 218.226 265.66 218.12L286.66 206.01C286.856 205.881 287.019 205.708 287.135 205.505C287.251 205.302 287.318 205.074 287.33 204.84V180.6C287.319 180.366 287.251 180.138 287.133 179.936C287.014 179.734 286.849 179.564 286.65 179.44L284.24 178.09C284.031 177.987 283.802 177.934 283.569 177.936C283.336 177.938 283.107 177.994 282.9 178.1Z" fill="#781B8A"/>
<path d="M265 217.72V193.49C265.012 193.257 265.079 193.031 265.195 192.829C265.312 192.627 265.474 192.456 265.67 192.33L286.67 180.21C287.04 180 287.34 180.21 287.34 180.6V204.83C287.328 205.064 287.261 205.292 287.145 205.495C287.028 205.698 286.866 205.871 286.67 206L265.67 218.11C265.32 218.33 265 218.15 265 217.72Z" fill="#781B8A"/>
<path d="M265 217.72V193.49C265.012 193.257 265.079 193.031 265.195 192.829C265.312 192.627 265.474 192.456 265.67 192.33L286.67 180.21C287.04 180 287.34 180.21 287.34 180.6V204.83C287.328 205.064 287.261 205.292 287.145 205.495C287.028 205.698 286.866 205.871 286.67 206L265.67 218.11C265.32 218.33 265 218.15 265 217.72Z" fill="#781B8A"/>
<path opacity="0.2" d="M265.69 218.11C265.48 218.213 265.249 218.267 265.015 218.267C264.781 218.267 264.55 218.213 264.34 218.11L261.93 216.72C261.733 216.594 261.569 216.423 261.451 216.222C261.332 216.02 261.264 215.793 261.25 215.56V191.38C261.262 191.135 261.337 190.897 261.47 190.69L265.22 192.83C265.095 193.028 265.026 193.256 265.02 193.49V217.72C265 218.12 265.3 218.34 265.69 218.11Z" fill="black"/>
<path opacity="0.4" d="M287.33 180.48C287.28 180.14 287 180.02 286.66 180.21L265.66 192.33C265.465 192.456 265.303 192.627 265.19 192.83L261.43 190.69C261.547 190.495 261.708 190.331 261.9 190.21L282.9 178.1C283.109 177.994 283.34 177.938 283.575 177.938C283.81 177.938 284.041 177.994 284.25 178.1L286.66 179.45C286.838 179.565 286.989 179.716 287.104 179.894C287.22 180.071 287.297 180.271 287.33 180.48Z" fill="white"/>
<path d="M272.85 196.87V205.69C272.84 205.91 272.777 206.125 272.668 206.316C272.558 206.507 272.405 206.67 272.22 206.79L270.52 207.79C270.17 208 269.89 207.79 269.89 207.43V198.61C269.9 198.39 269.963 198.175 270.072 197.984C270.182 197.793 270.335 197.63 270.52 197.51L272.22 196.51C272.57 196.3 272.85 196.47 272.85 196.87Z" fill="#455A64"/>
<path d="M282.47 200.09V191.09C282.47 190.4 282.1 190.26 281.64 190.78L273.12 200.41C272.66 200.93 272.85 201.35 273.54 201.35H281.22C281.552 201.345 281.868 201.21 282.102 200.975C282.335 200.739 282.467 200.422 282.47 200.09Z" fill="#455A64"/>
<path d="M352.4 184.73L260.72 237.66C260.475 237.82 260.271 238.036 260.125 238.289C259.979 238.543 259.895 238.828 259.88 239.12V297.57C259.897 297.859 259.982 298.14 260.128 298.391C260.274 298.641 260.477 298.853 260.72 299.01L263.72 300.75C263.983 300.88 264.272 300.948 264.565 300.948C264.858 300.948 265.147 300.88 265.41 300.75L357.09 247.81C357.334 247.649 357.538 247.433 357.684 247.18C357.83 246.926 357.914 246.642 357.93 246.35V187.86C357.915 187.568 357.83 187.283 357.682 187.031C357.534 186.779 357.328 186.565 357.08 186.41L354.08 184.72C353.819 184.59 353.531 184.523 353.239 184.524C352.947 184.526 352.66 184.597 352.4 184.73Z" fill="#455A64"/>
<path d="M357.94 187.7C357.87 187.28 357.53 187.13 357.11 187.37L265.43 240.31C265.18 240.465 264.973 240.682 264.83 240.94L260.14 238.26C260.279 238.014 260.479 237.808 260.72 237.66L352.4 184.72C352.663 184.59 352.952 184.522 353.245 184.522C353.538 184.522 353.827 184.59 354.09 184.72L357.09 186.41C357.317 186.55 357.511 186.738 357.658 186.961C357.805 187.184 357.901 187.436 357.94 187.7Z" fill="#37474F"/>
<path d="M264.58 300.25V241.77C264.596 241.477 264.682 241.192 264.83 240.938C264.977 240.684 265.183 240.469 265.43 240.31L357.11 187.37C357.57 187.1 357.95 187.32 357.95 187.86V246.34C357.934 246.632 357.85 246.916 357.704 247.17C357.558 247.424 357.354 247.639 357.11 247.8L265.43 300.74C265 301 264.58 300.79 264.58 300.25Z" fill="#455A64"/>
<path opacity="0.2" d="M265.43 300.74C265.167 300.868 264.878 300.935 264.585 300.935C264.292 300.935 264.003 300.868 263.74 300.74L260.74 299C260.497 298.843 260.294 298.631 260.148 298.381C260.002 298.13 259.917 297.849 259.9 297.56V239.12C259.91 238.816 260 238.519 260.16 238.26L264.85 240.94C264.698 241.191 264.612 241.477 264.6 241.77V300.25C264.58 300.74 264.93 301 265.43 300.74Z" fill="#263238"/>
<path d="M276.24 286.63C276.23 286.637 276.218 286.641 276.205 286.641C276.192 286.641 276.18 286.637 276.17 286.63C276.166 286.622 276.165 286.613 276.165 286.605C276.165 286.596 276.166 286.588 276.17 286.58V286.25L275.17 286.85C275.161 286.854 275.15 286.857 275.14 286.857C275.13 286.857 275.119 286.854 275.11 286.85V286.8V286.45C275.101 286.394 275.101 286.336 275.11 286.28L276.11 284.46C276.122 284.431 276.139 284.403 276.16 284.38H276.23L276.73 284.09C276.73 284.09 276.78 284.09 276.79 284.09V284.14V285.41L277.07 285.25C277.08 285.243 277.092 285.239 277.105 285.239C277.118 285.239 277.13 285.243 277.14 285.25V285.61C277.148 285.632 277.148 285.657 277.14 285.68L277.07 285.75L276.79 285.91V286.25C276.797 286.276 276.797 286.304 276.79 286.33C276.778 286.356 276.757 286.378 276.73 286.39L276.24 286.63ZM276.16 285.72V285.11L275.68 286L276.16 285.72Z" fill="white"/>
<path d="M278.2 284.25C278.203 284.277 278.203 284.303 278.2 284.33L278.13 284.39L277.7 284.64C277.7 284.64 277.65 284.64 277.64 284.64V284.21C277.632 284.184 277.632 284.156 277.64 284.13C277.644 284.116 277.652 284.103 277.662 284.093C277.673 284.082 277.686 284.074 277.7 284.07L278.13 283.81H278.2C278.205 283.826 278.205 283.844 278.2 283.86V284.25ZM278.2 285.41C278.203 285.437 278.203 285.463 278.2 285.49L278.13 285.55L277.7 285.8C277.7 285.8 277.65 285.8 277.64 285.8V285.75V285.32C277.632 285.294 277.632 285.266 277.64 285.24C277.644 285.226 277.652 285.213 277.662 285.203C277.673 285.192 277.686 285.184 277.7 285.18L278.13 284.93C278.14 284.923 278.152 284.919 278.165 284.919C278.178 284.919 278.19 284.923 278.2 284.93V285.41Z" fill="white"/>
<path d="M279.88 284.53C279.88 284.53 279.83 284.53 279.81 284.53C279.806 284.522 279.805 284.514 279.805 284.505C279.805 284.496 279.806 284.488 279.81 284.48V284.14L278.76 284.75H278.7V284.4C278.701 284.34 278.719 284.281 278.75 284.23L279.75 282.41L279.8 282.33C279.819 282.308 279.843 282.291 279.87 282.28L280.37 281.99C280.37 281.99 280.42 281.99 280.43 281.99V282.04V283.31L280.72 283.14H280.78C280.784 283.148 280.787 283.156 280.787 283.165C280.787 283.174 280.784 283.182 280.78 283.19V283.54C280.788 283.566 280.788 283.594 280.78 283.62L280.72 283.69L280.43 283.85V284.19C280.437 284.216 280.437 284.244 280.43 284.27C280.418 284.297 280.397 284.318 280.37 284.33L279.88 284.53ZM279.8 283.61V283L279.32 283.89L279.8 283.61Z" fill="white"/>
<path d="M341.59 248.1C341.592 248.234 341.565 248.368 341.51 248.49C341.46 248.63 341.389 248.761 341.3 248.88C341.204 249.006 341.097 249.123 340.98 249.23C340.866 249.332 340.742 249.422 340.61 249.5C340.491 249.571 340.364 249.625 340.23 249.66C340.125 249.684 340.015 249.684 339.91 249.66C339.824 249.643 339.746 249.598 339.69 249.53C339.634 249.437 339.606 249.329 339.61 249.22C339.6 249.154 339.6 249.086 339.61 249.02L339.67 248.83C339.689 248.767 339.716 248.706 339.75 248.65L339.83 248.48L340.47 247.26V247.19L340.54 247.13L341.07 246.83V246.88L340.63 247.72C340.734 247.669 340.845 247.632 340.96 247.61C341.049 247.589 341.141 247.589 341.23 247.61C341.307 247.639 341.374 247.692 341.42 247.76C341.515 247.85 341.576 247.97 341.59 248.1ZM340.23 248.89C340.219 248.926 340.219 248.964 340.23 249C340.259 249.011 340.291 249.011 340.32 249C340.359 249.009 340.401 249.009 340.44 249L340.58 248.94L340.71 248.84C340.755 248.805 340.795 248.765 340.83 248.72C340.864 248.672 340.894 248.622 340.92 248.57C340.929 248.521 340.929 248.47 340.92 248.42C340.931 248.384 340.931 248.346 340.92 248.31C340.891 248.301 340.859 248.301 340.83 248.31C340.791 248.295 340.749 248.295 340.71 248.31C340.663 248.322 340.619 248.342 340.58 248.37C340.527 248.394 340.48 248.428 340.44 248.47C340.395 248.505 340.355 248.545 340.32 248.59C340.283 248.635 340.253 248.686 340.23 248.74C340.221 248.79 340.221 248.841 340.23 248.89Z" fill="white"/>
<path d="M342.65 247C342.657 247.026 342.657 247.054 342.65 247.08L342.59 247.14L342.16 247.39C342.16 247.39 342.11 247.39 342.09 247.39C342.086 247.382 342.085 247.373 342.085 247.365C342.085 247.356 342.086 247.348 342.09 247.34V247C342.086 246.973 342.086 246.946 342.09 246.92C342.105 246.892 342.13 246.871 342.16 246.86L342.59 246.61C342.59 246.61 342.64 246.61 342.65 246.61V247ZM342.65 248.16C342.657 248.186 342.657 248.214 342.65 248.24C342.635 248.265 342.615 248.285 342.59 248.3L342.16 248.55C342.16 248.55 342.11 248.55 342.09 248.55V248.12C342.086 248.093 342.086 248.066 342.09 248.04C342.105 248.012 342.13 247.991 342.16 247.98L342.59 247.73C342.59 247.73 342.64 247.73 342.65 247.73V248.16Z" fill="white"/>
<path d="M344.89 244.67H345C345.004 244.678 345.007 244.686 345.007 244.695C345.007 244.704 345.004 244.712 345 244.72V245.07C345.004 245.096 345.004 245.123 345 245.15C345.002 245.177 345.002 245.203 345 245.23L344.6 245.86C344.737 245.816 344.883 245.816 345.02 245.86C345.079 245.89 345.127 245.939 345.158 245.998C345.188 246.057 345.199 246.124 345.19 246.19C345.184 246.449 345.093 246.699 344.93 246.9C344.728 247.148 344.48 247.355 344.2 247.51C344.069 247.59 343.928 247.65 343.78 247.69C343.679 247.718 343.571 247.718 343.47 247.69C343.398 247.685 343.33 247.653 343.28 247.6C343.232 247.544 343.207 247.473 343.21 247.4C343.202 247.377 343.202 247.352 343.21 247.33C343.221 247.309 343.239 247.291 343.26 247.28L343.68 247.04C343.695 247.032 343.713 247.028 343.73 247.028C343.747 247.028 343.765 247.032 343.78 247.04H343.86H343.98C344.052 247.031 344.121 247.003 344.18 246.96C344.28 246.903 344.371 246.832 344.45 246.75C344.481 246.72 344.506 246.685 344.523 246.645C344.541 246.606 344.55 246.563 344.55 246.52C344.55 246.44 344.55 246.41 344.45 246.41C344.355 246.427 344.263 246.461 344.18 246.51L343.91 246.67C343.91 246.67 343.91 246.67 343.85 246.67V246.39C343.846 246.363 343.846 246.336 343.85 246.31C343.864 246.282 343.881 246.255 343.9 246.23L344.25 245.67L343.39 246.17C343.39 246.17 343.34 246.17 343.32 246.17V245.82C343.318 245.79 343.326 245.76 343.342 245.735C343.358 245.71 343.382 245.691 343.41 245.68L344.89 244.67Z" fill="white"/>
<path d="M346.55 243.68C346.683 243.6 346.828 243.543 346.98 243.51C347.075 243.484 347.175 243.484 347.27 243.51C347.351 243.549 347.415 243.617 347.45 243.7C347.49 243.796 347.513 243.897 347.52 244V244.59C347.51 244.722 347.487 244.853 347.45 244.98C347.409 245.115 347.348 245.243 347.27 245.36C347.188 245.494 347.091 245.619 346.98 245.73C346.849 245.852 346.705 245.96 346.55 246.05C346.416 246.131 346.271 246.192 346.12 246.23C346.023 246.262 345.917 246.262 345.82 246.23C345.747 246.189 345.687 246.126 345.65 246.05C345.609 245.951 345.586 245.847 345.58 245.74C345.58 245.65 345.58 245.56 345.58 245.45C345.58 245.34 345.58 245.25 345.58 245.15C345.59 245.021 345.613 244.894 345.65 244.77C345.694 244.635 345.751 244.504 345.82 244.38C345.905 244.245 346.006 244.121 346.12 244.01C346.251 243.885 346.395 243.774 346.55 243.68ZM346.9 244.95C346.91 244.764 346.91 244.577 346.9 244.39C346.906 244.344 346.906 244.297 346.9 244.25C346.889 244.218 346.868 244.19 346.84 244.17C346.823 244.162 346.804 244.158 346.785 244.158C346.766 244.158 346.747 244.162 346.73 244.17C346.673 244.18 346.619 244.2 346.57 244.23C346.507 244.265 346.45 244.309 346.4 244.36C346.36 244.402 346.327 244.449 346.3 244.5C346.27 244.549 346.249 244.603 346.24 244.66C346.235 244.713 346.235 244.767 346.24 244.82C346.23 245.007 346.23 245.194 346.24 245.38C346.234 245.427 346.234 245.474 346.24 245.52C346.233 245.55 346.233 245.581 346.24 245.61C346.276 245.62 346.314 245.62 346.35 245.61C346.41 245.596 346.468 245.573 346.52 245.54C346.577 245.505 346.63 245.465 346.68 245.42C346.723 245.375 346.76 245.325 346.79 245.27C346.819 245.224 346.839 245.173 346.85 245.12C346.869 245.081 346.886 245.041 346.9 245V244.95Z" fill="white"/>
<path opacity="0.3" d="M287.11 277.28L335.43 249.38C336.22 248.92 336.86 249.25 336.86 250.11C336.826 250.591 336.679 251.058 336.43 251.471C336.182 251.885 335.839 252.234 335.43 252.49L287.11 280.39C286.32 280.85 285.67 280.52 285.67 279.66C285.705 279.178 285.854 278.711 286.104 278.297C286.354 277.883 286.699 277.535 287.11 277.28Z" fill="white"/>
<path d="M287.11 277.28L323.39 256.33C324.18 255.87 324.83 256.2 324.83 257.06C324.793 257.542 324.643 258.008 324.393 258.421C324.143 258.834 323.799 259.183 323.39 259.44L287.11 280.39C286.32 280.85 285.67 280.52 285.67 279.66C285.705 279.178 285.854 278.71 286.104 278.297C286.354 277.883 286.699 277.535 287.11 277.28Z" fill="white"/>
<path d="M353.91 213L349.63 215.46C347.87 216.46 344.8 218.39 343.04 217.91C341.56 217.51 340.42 215.52 338.38 216.7C337.09 217.44 335.66 222.01 333.15 223.46C330.64 224.91 329.15 220.82 328.34 218.71C327.53 216.6 326.1 212.65 323.11 214.37C320.12 216.09 318.57 222.14 316.67 226.58C314.77 231.02 312.3 235.32 309.25 237.08C305.65 239.16 303.17 238.15 301.48 239.13C299.79 240.11 298.37 243.21 296.48 245C294.8 246.63 292.21 248.2 290.72 247C289.23 245.8 288.16 242.72 286.66 243.58C285.16 244.44 283.95 249.42 282.53 251.91C281.11 254.4 279.53 255.91 275.34 258.32L267.4 262.9V263.47L270.82 261.47C272.53 260.47 274.94 259.18 276.55 259.86C278.16 260.54 278.23 261.16 279.65 260.34C281.07 259.52 281.65 258.34 282.65 256.73C283.309 255.491 284.251 254.426 285.4 253.62C286.4 253.01 287.77 253.62 288.6 254.42C289.43 255.22 290.24 256.09 291.47 255.42C292.755 254.469 293.751 253.182 294.35 251.7C295.15 250.14 295.59 248.91 296.47 248.39C297.441 247.943 298.538 247.851 299.57 248.13C301.242 248.402 302.955 248.046 304.38 247.13C306.46 245.93 308.88 243.81 311.92 238.39L316.53 235.72C319.89 233.79 322.21 232.66 323.75 233.02C325.67 233.46 328.31 237.16 331.18 235.49C334.05 233.82 334.89 229.49 336.31 226.63C337.435 223.915 339.501 221.696 342.13 220.38L353.87 213.6L353.91 213Z" fill="#781B8A"/>
<path opacity="0.2" d="M328.34 235.63C326.61 234.97 325.04 233.29 323.79 233C322.25 232.64 319.93 233.77 316.57 235.7L312 238.37C314.66 233.6 317.19 226.13 318.14 223.17C318.55 221.91 319.01 220.65 319.55 219.42C320.092 218.096 320.804 216.849 321.67 215.71C323.16 214.16 324.28 213.99 325 215.79C325.72 217.59 325.19 222.95 325.32 227.5C325.45 232.05 326.65 234.61 328.34 235.63Z" fill="black"/>
<path opacity="0.2" d="M290.75 247C292.24 248.18 294.83 246.61 296.51 245C298.37 243.21 299.78 240.11 301.51 239.13C303.24 238.15 305.68 239.13 309.28 237.08C310.462 236.354 311.5 235.414 312.34 234.31C311.03 236.31 309.04 240.05 305.15 242.86C302.89 244.49 299.96 245.49 298.66 246.24C297.345 246.982 296.275 248.09 295.58 249.43C295.21 250.04 294.87 250.82 294.42 251.7C293.821 253.182 292.825 254.469 291.54 255.42C291.308 255.573 291.039 255.661 290.762 255.677C290.485 255.693 290.208 255.635 289.96 255.51C288.87 254.66 288.38 252.8 288.24 248.88C288.07 244.35 287.43 243.47 286.72 243.6C288.19 242.76 289.26 245.87 290.75 247Z" fill="black"/>
<path opacity="0.2" d="M325.28 227.5C325.15 222.95 325.69 217.59 324.96 215.79C324.47 214.57 323.8 214.26 322.96 214.66C324.23 214.49 325.35 216.5 324.61 221.45C324.2 224.19 322.99 229.33 323.61 232.97C323.68 232.965 323.75 232.965 323.82 232.97C325.07 233.26 326.64 234.97 328.37 235.6C326.65 234.61 325.41 232.06 325.28 227.5Z" fill="black"/>
<path opacity="0.2" d="M312 238.37L314.55 236.89C315.442 234.49 316.213 232.047 316.86 229.57C317.86 225.98 318.62 221.76 319.55 219.42C319.01 220.65 318.55 221.91 318.14 223.17C317.15 226.13 314.62 233.6 312 238.37Z" fill="black"/>
<path opacity="0.5" d="M337 218.48C336 220.16 334.82 222.48 333.14 223.48C330.63 224.93 329.14 220.84 328.33 218.73C328.09 218.12 327.8 217.34 327.44 216.6C328.44 218.74 329.28 222.66 329.89 224.87C330.41 226.75 330.94 228.03 332.41 227.46C333.88 226.89 334.89 223.79 335.5 222.12C335.918 220.874 336.419 219.658 337 218.48Z" fill="white"/>
<path opacity="0.2" d="M337.25 221.29C336.49 223.64 336.14 226.23 334.95 230.01C335.42 228.81 335.85 227.61 336.35 226.61C337.475 223.894 339.541 221.676 342.17 220.36L346.02 218.14C342.31 220.28 340.71 218.64 339.82 218.14C338.93 217.64 338 218.94 337.25 221.29Z" fill="black"/>
<path opacity="0.2" d="M339.3 218.05C338.58 218.19 337.86 219.39 337.25 221.29C336.49 223.64 336.14 226.23 334.95 230.01C335.42 228.81 335.85 227.61 336.35 226.61C336.71 225.88 337.05 225.25 337.35 224.67C337.49 223.55 337.58 222.57 337.64 221.99C337.87 220.26 338.5 218.63 339.3 218.05Z" fill="black"/>
<path opacity="0.2" d="M309.25 237.1C305.65 239.18 303.17 238.17 301.48 239.15C301.195 239.319 300.933 239.524 300.7 239.76C301.84 238.76 303.7 239.51 305.13 239.76C306.579 239.919 308.04 239.6 309.29 238.85C310.372 237.409 311.373 235.91 312.29 234.36C311.453 235.452 310.422 236.38 309.25 237.1Z" fill="black"/>
<path opacity="0.2" d="M288.21 248.9C288.35 252.82 288.84 254.68 289.93 255.53C290.178 255.655 290.455 255.713 290.732 255.697C291.009 255.681 291.278 255.593 291.51 255.44C292.68 254.606 293.6 253.469 294.17 252.15C292.72 254.15 290.54 254.48 289.92 252.58C289.3 250.68 289.28 248.04 288.85 246.24C288.42 244.44 287.93 243.51 287.23 243.47H287.09H286.99H286.93H286.85L286.69 243.54C287.4 243.49 288 244.37 288.21 248.9Z" fill="black"/>
<path opacity="0.5" d="M282.56 252C281.13 254.49 279.56 256 275.37 258.41L274.45 258.94C279.74 255.94 281.81 256.68 283.18 253.79C284.55 250.9 285.09 246.06 285.78 244.7C284.68 246.47 283.68 250 282.56 252Z" fill="white"/>
<path opacity="0.5" d="M314.43 233.19C313.697 234.96 312.869 236.689 311.95 238.37C308.95 243.79 306.5 245.91 304.42 247.11C303.001 248.031 301.289 248.388 299.62 248.11C298.583 247.838 297.484 247.933 296.51 248.38C297.746 247.553 299.215 247.146 300.7 247.22C302.36 247.17 304.81 246.44 307.63 243.64C310.45 240.84 314.31 233.42 314.43 233.19Z" fill="white"/>
<path d="M299.86 257.45C299.876 257.435 299.898 257.427 299.92 257.427C299.942 257.427 299.964 257.435 299.98 257.45C299.998 257.498 299.998 257.552 299.98 257.6V257.93C299.994 257.999 299.994 258.071 299.98 258.14C299.97 258.17 299.955 258.198 299.934 258.222C299.913 258.246 299.888 258.266 299.86 258.28L298.73 258.94V264.4C298.728 264.473 298.711 264.544 298.68 264.61C298.654 264.667 298.612 264.715 298.56 264.75L298.31 264.89C298.303 264.898 298.295 264.905 298.286 264.91C298.276 264.914 298.266 264.917 298.255 264.917C298.244 264.917 298.234 264.914 298.224 264.91C298.215 264.905 298.207 264.898 298.2 264.89C298.18 264.871 298.165 264.847 298.156 264.821C298.148 264.795 298.146 264.767 298.15 264.74V259.28L297.01 259.94C296.993 259.953 296.972 259.96 296.95 259.96C296.928 259.96 296.907 259.953 296.89 259.94C296.854 259.898 296.836 259.845 296.84 259.79V259.45C296.842 259.38 296.859 259.312 296.89 259.25C296.89 259.18 296.96 259.13 297.01 259.11L299.86 257.45Z" fill="white"/>
<path d="M303.82 255.16C303.837 255.147 303.858 255.14 303.88 255.14C303.902 255.14 303.923 255.147 303.94 255.16C303.976 255.201 303.993 255.255 303.99 255.31V261.36C303.988 261.433 303.971 261.504 303.94 261.57C303.917 261.629 303.875 261.678 303.82 261.71L303.57 261.85C303.563 261.858 303.555 261.865 303.546 261.87C303.536 261.874 303.526 261.877 303.515 261.877C303.504 261.877 303.494 261.874 303.484 261.87C303.475 261.865 303.467 261.858 303.46 261.85C303.442 261.802 303.442 261.748 303.46 261.7V259.06L301.32 260.3V262.94C301.334 263.009 301.334 263.081 301.32 263.15C301.297 263.209 301.255 263.258 301.2 263.29L300.96 263.43C300.907 263.43 300.867 263.43 300.84 263.43C300.803 263.385 300.785 263.328 300.79 263.27V257.27C300.792 257.2 300.809 257.132 300.84 257.07C300.85 257.04 300.865 257.012 300.886 256.988C300.907 256.964 300.932 256.944 300.96 256.93L301.2 256.78C301.217 256.767 301.238 256.76 301.26 256.76C301.282 256.76 301.303 256.767 301.32 256.78C301.338 256.828 301.338 256.882 301.32 256.93V259.5L303.46 258.26V255.69C303.446 255.624 303.446 255.556 303.46 255.49C303.48 255.432 303.519 255.383 303.57 255.35L303.82 255.16Z" fill="white"/>
<path d="M307.66 258.66C307.676 258.648 307.695 258.641 307.715 258.641C307.735 258.641 307.754 258.648 307.77 258.66C307.79 258.679 307.805 258.703 307.814 258.729C307.822 258.755 307.824 258.783 307.82 258.81V259.15C307.824 259.22 307.806 259.29 307.77 259.35C307.747 259.409 307.709 259.46 307.66 259.5L305.2 260.92C305.183 260.933 305.162 260.94 305.14 260.94C305.118 260.94 305.097 260.933 305.08 260.92C305.044 260.878 305.026 260.825 305.03 260.77V254.77C305.032 254.697 305.049 254.626 305.08 254.56C305.08 254.49 305.15 254.44 305.2 254.42L307.61 253.03C307.625 253.016 307.645 253.008 307.665 253.008C307.685 253.008 307.705 253.016 307.72 253.03C307.731 253.054 307.736 253.079 307.736 253.105C307.736 253.131 307.731 253.156 307.72 253.18V253.52C307.738 253.589 307.738 253.661 307.72 253.73C307.697 253.786 307.659 253.834 307.61 253.87L305.61 255.02V257.02L307.48 255.94C307.496 255.928 307.515 255.921 307.535 255.921C307.555 255.921 307.574 255.928 307.59 255.94C307.626 255.982 307.644 256.035 307.64 256.09V256.43C307.639 256.5 307.622 256.568 307.59 256.63C307.567 256.689 307.529 256.74 307.48 256.78L305.61 257.85V259.85L307.66 258.66Z" fill="white"/>
<path d="M311.43 250.68C311.622 250.55 311.848 250.481 312.08 250.48C312.254 250.487 312.422 250.538 312.57 250.63C312.7 250.73 312.803 250.861 312.87 251.01C312.934 251.159 312.971 251.318 312.98 251.48C312.993 251.536 312.993 251.594 312.98 251.65C312.958 251.695 312.923 251.733 312.88 251.76L312.63 251.91C312.598 251.922 312.562 251.922 312.53 251.91C312.53 251.91 312.47 251.86 312.44 251.79C312.414 251.726 312.38 251.666 312.34 251.61C312.294 251.536 312.228 251.477 312.15 251.44C312.066 251.389 311.968 251.365 311.87 251.37C311.727 251.376 311.589 251.421 311.47 251.5C311.352 251.568 311.244 251.652 311.15 251.75C311.041 251.849 310.947 251.964 310.87 252.09C310.787 252.222 310.72 252.363 310.67 252.51C310.621 252.662 310.597 252.821 310.6 252.98C310.592 253.107 310.616 253.234 310.67 253.35C310.695 253.392 310.728 253.429 310.768 253.458C310.807 253.487 310.852 253.508 310.9 253.52C311.029 253.546 311.161 253.546 311.29 253.52C311.485 253.503 311.678 253.477 311.87 253.44C312.062 253.412 312.258 253.412 312.45 253.44C312.596 253.454 312.735 253.509 312.85 253.6C312.956 253.693 313.032 253.815 313.07 253.95C313.117 254.143 313.141 254.341 313.14 254.54C313.14 254.824 313.1 255.107 313.02 255.38C312.939 255.658 312.829 255.926 312.69 256.18C312.549 256.429 312.374 256.658 312.17 256.86C311.977 257.072 311.751 257.251 311.5 257.39C311.305 257.516 311.082 257.592 310.85 257.61C310.672 257.625 310.493 257.583 310.34 257.49C310.196 257.404 310.078 257.279 310 257.13C309.915 256.963 309.871 256.778 309.87 256.59C309.856 256.538 309.856 256.482 309.87 256.43C309.89 256.383 309.921 256.342 309.96 256.31L310.21 256.17C310.227 256.162 310.246 256.158 310.265 256.158C310.284 256.158 310.303 256.162 310.32 256.17C310.32 256.17 310.38 256.22 310.4 256.29C310.427 256.368 310.464 256.442 310.51 256.51C310.565 256.585 310.637 256.647 310.72 256.69C310.818 256.729 310.924 256.746 311.03 256.74C311.184 256.721 311.331 256.666 311.46 256.58C311.608 256.498 311.743 256.393 311.86 256.27C311.992 256.15 312.106 256.012 312.2 255.86C312.298 255.715 312.376 255.557 312.43 255.39C312.489 255.233 312.519 255.067 312.52 254.9C312.531 254.772 312.496 254.644 312.42 254.54C312.349 254.456 312.249 254.402 312.14 254.39C311.992 254.36 311.838 254.36 311.69 254.39C311.492 254.413 311.295 254.446 311.1 254.49C310.928 254.52 310.752 254.52 310.58 254.49C310.445 254.462 310.323 254.392 310.23 254.29C310.136 254.181 310.07 254.051 310.04 253.91C309.998 253.726 309.977 253.538 309.98 253.35C309.982 253.104 310.012 252.859 310.07 252.62C310.132 252.364 310.222 252.116 310.34 251.88C310.462 251.642 310.613 251.42 310.79 251.22C310.973 251.007 311.189 250.825 311.43 250.68Z" fill="white"/>
<path d="M313.73 251.89C313.732 251.534 313.769 251.179 313.84 250.83C313.916 250.486 314.027 250.151 314.17 249.83C314.31 249.527 314.484 249.242 314.69 248.98C314.892 248.74 315.132 248.534 315.4 248.37C315.616 248.235 315.865 248.162 316.12 248.16C316.316 248.177 316.5 248.261 316.64 248.4C316.795 248.579 316.908 248.791 316.97 249.02C317.046 249.321 317.083 249.63 317.08 249.94C317.08 250.49 317.08 251.05 317.08 251.61C317.075 251.966 317.034 252.321 316.96 252.67C316.886 253.014 316.776 253.349 316.63 253.67C316.496 253.973 316.321 254.255 316.11 254.51C315.912 254.755 315.672 254.961 315.4 255.12C315.188 255.256 314.942 255.329 314.69 255.33C314.593 255.326 314.498 255.303 314.411 255.262C314.323 255.221 314.244 255.162 314.18 255.09C314.016 254.913 313.902 254.696 313.85 254.46C313.766 254.164 313.725 253.857 313.73 253.55C313.71 253 313.71 252.45 313.73 251.89ZM316.51 250.33C316.509 250.09 316.476 249.851 316.41 249.62C316.378 249.463 316.298 249.319 316.18 249.21C316.135 249.167 316.081 249.133 316.023 249.111C315.965 249.088 315.902 249.078 315.84 249.08C315.685 249.094 315.535 249.141 315.4 249.22C315.243 249.323 315.099 249.444 314.97 249.58C314.832 249.736 314.717 249.911 314.63 250.1C314.526 250.317 314.446 250.545 314.39 250.78C314.338 251.05 314.308 251.325 314.3 251.6C314.3 251.89 314.3 252.15 314.3 252.4C314.3 252.65 314.3 252.9 314.3 253.18C314.303 253.419 314.333 253.657 314.39 253.89C314.431 254.046 314.514 254.188 314.63 254.3C314.675 254.343 314.729 254.377 314.787 254.399C314.845 254.421 314.908 254.432 314.97 254.43C315.124 254.418 315.272 254.366 315.4 254.28C315.566 254.186 315.715 254.064 315.84 253.92C315.98 253.765 316.094 253.59 316.18 253.4C316.286 253.188 316.364 252.963 316.41 252.73C316.471 252.457 316.504 252.179 316.51 251.9C316.51 251.62 316.51 251.35 316.51 251.11C316.51 250.87 316.51 250.61 316.51 250.33Z" fill="white"/>
<path d="M320.77 251.93C320.71 251.93 320.67 251.93 320.63 251.93C320.589 251.889 320.555 251.842 320.53 251.79L318.53 248.35V253C318.528 253.073 318.511 253.144 318.48 253.21C318.46 253.268 318.421 253.317 318.37 253.35L318.12 253.5C318.103 253.513 318.082 253.52 318.06 253.52C318.038 253.52 318.017 253.513 318 253.5C317.982 253.452 317.982 253.398 318 253.35V247.3C317.986 247.231 317.986 247.159 318 247.09C318.01 247.06 318.025 247.032 318.046 247.008C318.067 246.984 318.092 246.964 318.12 246.95L318.33 246.82C318.39 246.82 318.43 246.82 318.47 246.82C318.509 246.859 318.542 246.903 318.57 246.95L320.57 250.39V245.79C320.572 245.717 320.589 245.646 320.62 245.58C320.64 245.522 320.679 245.473 320.73 245.44L320.98 245.29C320.997 245.277 321.018 245.27 321.04 245.27C321.062 245.27 321.083 245.277 321.1 245.29C321.118 245.338 321.118 245.392 321.1 245.44V251.49C321.114 251.559 321.114 251.631 321.1 251.7C321.09 251.73 321.075 251.758 321.054 251.782C321.033 251.806 321.008 251.826 320.98 251.84L320.77 251.93Z" fill="white"/>
<path d="M322 247.07C322.005 246.734 322.041 246.399 322.11 246.07C322.181 245.725 322.292 245.389 322.44 245.07C322.577 244.758 322.759 244.468 322.98 244.21C323.195 243.958 323.453 243.745 323.74 243.58C323.954 243.437 324.203 243.355 324.46 243.34C324.65 243.34 324.835 243.399 324.99 243.51C325.128 243.612 325.235 243.751 325.3 243.91C325.368 244.072 325.409 244.244 325.42 244.42C325.433 244.472 325.433 244.527 325.42 244.58C325.4 244.63 325.365 244.672 325.32 244.7L325.07 244.84C324.98 244.9 324.92 244.9 324.9 244.84C324.854 244.728 324.797 244.621 324.73 244.52C324.678 244.431 324.602 244.358 324.51 244.31C324.414 244.262 324.306 244.244 324.2 244.26C324.051 244.284 323.908 244.338 323.78 244.42C323.609 244.52 323.454 244.644 323.32 244.79C323.175 244.952 323.054 245.134 322.96 245.33C322.845 245.544 322.761 245.773 322.71 246.01C322.65 246.276 322.616 246.547 322.61 246.82C322.61 247.1 322.61 247.36 322.61 247.6C322.61 247.84 322.61 248.09 322.61 248.37C322.611 248.617 322.645 248.862 322.71 249.1C322.751 249.261 322.838 249.407 322.96 249.52C323.008 249.564 323.065 249.597 323.127 249.618C323.189 249.638 323.255 249.646 323.32 249.64C323.484 249.623 323.641 249.568 323.78 249.48C323.948 249.384 324.1 249.262 324.23 249.12C324.385 248.972 324.511 248.795 324.6 248.6C324.715 248.382 324.799 248.15 324.85 247.91C324.913 247.624 324.943 247.332 324.94 247.04V246.78L324.06 247.28C324.045 247.294 324.025 247.302 324.005 247.302C323.985 247.302 323.965 247.294 323.95 247.28C323.914 247.238 323.896 247.184 323.9 247.13V246.8C323.902 246.727 323.919 246.656 323.95 246.59C323.97 246.532 324.009 246.483 324.06 246.45L325.35 245.7C325.367 245.687 325.388 245.68 325.41 245.68C325.432 245.68 325.453 245.687 325.47 245.7C325.488 245.748 325.488 245.802 325.47 245.85V246.74C325.471 247.11 325.431 247.479 325.35 247.84C325.275 248.185 325.161 248.521 325.01 248.84C324.872 249.148 324.69 249.434 324.47 249.69C324.26 249.937 324.01 250.146 323.73 250.31C323.504 250.46 323.241 250.543 322.97 250.55C322.869 250.548 322.768 250.526 322.676 250.484C322.583 250.443 322.499 250.384 322.43 250.31C322.273 250.13 322.163 249.913 322.11 249.68C322.03 249.373 321.99 249.057 321.99 248.74C321.997 248.187 322 247.63 322 247.07Z" fill="white"/>
<defs>
<linearGradient id="paint0_linear_10_293" x1="397" y1="388.5" x2="-2.00001" y2="263.5" gradientUnits="userSpaceOnUse">
<stop stop-color="#DD71F0"/>
<stop offset="1" stop-color="#36C6CF"/>
</linearGradient>
</defs>
</svg>
