<svg width="184" height="167" viewBox="0 0 184 167" fill="none" xmlns="http://www.w3.org/2000/svg">
<ellipse cx="92" cy="83.5" rx="92" ry="83.5" fill="black"/>
<path d="M95.925 56.742L102.399 117H80.902L79.574 74.006L71.274 117H49.528L41.062 74.338L39.817 117H18.32L24.794 56.742H53.014L60.235 96.001L66.543 56.742H95.925ZM146.702 56.825C157.714 56.825 165.377 58.7893 169.693 62.718C174.009 66.5913 176.167 72.0693 176.167 79.152C176.167 84.0213 175.31 88.1713 173.594 91.602C171.879 94.9773 168.863 97.6333 164.547 99.57C160.231 101.451 154.283 102.392 146.702 102.392H129.438V117H109.02C109.463 106.265 109.684 96.2223 109.684 86.871C109.684 77.5197 109.463 67.4767 109.02 56.742H129.438V56.825H146.702ZM140.892 86.373C145.485 86.373 148.916 86.207 151.184 85.875C153.508 85.4877 155.113 84.8237 155.998 83.883C156.939 82.9423 157.409 81.559 157.409 79.733C157.409 77.907 156.967 76.5513 156.081 75.666C155.251 74.7253 153.674 74.089 151.35 73.757C149.082 73.425 145.596 73.259 140.892 73.259H129.438V86.373H140.892Z" fill="url(#paint0_linear_22_815)"/>
<defs>
<linearGradient id="paint0_linear_22_815" x1="157.471" y1="118" x2="18.7943" y2="65.1455" gradientUnits="userSpaceOnUse">
<stop stop-color="#DD71F0"/>
<stop offset="1" stop-color="#36C6CF"/>
</linearGradient>
</defs>
</svg>
