<svg width="35" height="41" viewBox="0 0 35 41" fill="none" xmlns="http://www.w3.org/2000/svg">
<path d="M27.825 18.1988C22.225 14.4365 12.8625 14.0405 7.525 15.9216C6.65 16.2187 5.775 15.6246 5.5125 14.7336C5.25 13.7435 5.775 12.7534 6.5625 12.4564C12.775 10.3772 23.0125 10.7733 29.4875 15.1296C30.275 15.6246 30.5375 16.8127 30.1 17.7038C29.6625 18.3968 28.6125 18.6938 27.825 18.1988ZM27.65 23.7432C27.2125 24.4363 26.425 24.7333 25.8125 24.2382C21.0875 20.971 13.9125 19.9809 8.4 21.9611C7.7 22.1591 6.9125 21.7631 6.7375 20.971C6.5625 20.1789 6.9125 19.2879 7.6125 19.0899C14 16.9117 21.875 18.0008 27.3 21.7631C27.825 22.0601 28.0875 23.0502 27.65 23.7432ZM25.55 29.1886C25.2 29.7826 24.5875 29.9807 24.0625 29.5846C19.95 26.7134 14.7875 26.1194 8.6625 27.7035C8.05 27.9015 7.525 27.4065 7.35 26.8124C7.175 26.1194 7.6125 25.5253 8.1375 25.3273C14.7875 23.6442 20.5625 24.3373 25.1125 27.5055C25.725 27.8025 25.8125 28.5946 25.55 29.1886ZM17.5 0.575531C15.2019 0.575531 12.9262 1.08771 10.803 2.08283C8.67984 3.07794 6.75066 4.5365 5.12563 6.37524C1.84374 10.0887 0 15.1253 0 20.377C0 25.6286 1.84374 30.6652 5.12563 34.3787C6.75066 36.2174 8.67984 37.676 10.803 38.6711C12.9262 39.6662 15.2019 40.1784 17.5 40.1784C22.1413 40.1784 26.5925 38.0922 29.8744 34.3787C33.1563 30.6652 35 25.6286 35 20.377C35 17.7766 34.5473 15.2017 33.6679 12.7993C32.7884 10.3969 31.4994 8.21397 29.8744 6.37524C28.2493 4.5365 26.3202 3.07794 24.197 2.08283C22.0738 1.08771 19.7981 0.575531 17.5 0.575531Z" fill="white"/>
</svg>
