<svg width="169" height="97" viewBox="0 0 169 97" fill="none" xmlns="http://www.w3.org/2000/svg">
<path d="M80.925 35.742L87.399 96H65.902L64.574 53.006L56.274 96H34.528L26.062 53.338L24.817 96H3.32L9.794 35.742H38.014L45.235 75.001L51.543 35.742H80.925ZM131.702 35.825C142.714 35.825 150.377 37.7893 154.693 41.718C159.009 45.5913 161.167 51.0693 161.167 58.152C161.167 63.0213 160.31 67.1713 158.594 70.602C156.879 73.9773 153.863 76.6333 149.547 78.57C145.231 80.4513 139.283 81.392 131.702 81.392H114.438V96H94.0202C94.4629 85.2653 94.6842 75.2223 94.6842 65.871C94.6842 56.5197 94.4629 46.4767 94.0202 35.742H114.438V35.825H131.702ZM125.892 65.373C130.485 65.373 133.916 65.207 136.184 64.875C138.508 64.4877 140.113 63.8237 140.998 62.883C141.939 61.9423 142.409 60.559 142.409 58.733C142.409 56.907 141.967 55.5513 141.081 54.666C140.251 53.7253 138.674 53.089 136.35 52.757C134.082 52.425 130.596 52.259 125.892 52.259H114.438V65.373H125.892Z" fill="url(#paint0_linear_19_689)"/>
<defs>
<linearGradient id="paint0_linear_19_689" x1="142.471" y1="97" x2="3.79433" y2="44.1455" gradientUnits="userSpaceOnUse">
<stop stop-color="#DD71F0"/>
<stop offset="1" stop-color="#36C6CF"/>
</linearGradient>
</defs>
</svg>
