<svg width="388" height="115" viewBox="0 0 388 115" fill="none" xmlns="http://www.w3.org/2000/svg">
<path d="M80.925 35.742L87.399 96H65.902L64.574 53.006L56.274 96H34.528L26.062 53.338L24.817 96H3.32L9.794 35.742H38.014L45.235 75.001L51.543 35.742H80.925ZM131.702 35.825C142.714 35.825 150.377 37.7893 154.693 41.718C159.009 45.5913 161.167 51.0693 161.167 58.152C161.167 63.0213 160.31 67.1713 158.594 70.602C156.879 73.9773 153.863 76.6333 149.547 78.57C145.231 80.4513 139.283 81.392 131.702 81.392H114.438V96H94.0202C94.4629 85.2653 94.6842 75.2223 94.6842 65.871C94.6842 56.5197 94.4629 46.4767 94.0202 35.742H114.438V35.825H131.702ZM125.892 65.373C130.485 65.373 133.916 65.207 136.184 64.875C138.508 64.4877 140.113 63.8237 140.998 62.883C141.939 61.9423 142.409 60.559 142.409 58.733C142.409 56.907 141.967 55.5513 141.081 54.666C140.251 53.7253 138.674 53.089 136.35 52.757C134.082 52.425 130.596 52.259 125.892 52.259H114.438V65.373H125.892Z" fill="#36C6CF"/>
<line x1="178.5" y1="15" x2="178.5" y2="115" stroke="#36C6CF"/>
<path d="M239.18 29.96L242.3 59H231.94L231.3 38.28L227.3 59H216.82L212.74 38.44L212.14 59H201.78L204.9 29.96H218.5L221.98 48.88L225.02 29.96H239.18ZM269.171 29.92H279.091V45.84C279.037 49.76 277.691 53 275.051 55.56C272.437 58.12 268.024 59.4 261.811 59.4C255.517 59.4 251.211 58.1867 248.891 55.76C246.571 53.3067 245.437 50.0933 245.491 46.12V29.92H255.411V45.48C255.411 46.6533 255.491 47.6133 255.651 48.36C255.837 49.08 256.397 49.76 257.331 50.4C258.291 51.04 259.824 51.36 261.931 51.36C264.224 51.36 265.904 51.04 266.971 50.4C268.037 49.7333 268.664 49 268.851 48.2C269.064 47.4 269.171 46.3733 269.171 45.12V29.92ZM282.288 55.56C283.194 54.2 283.941 52.9333 284.528 51.76C285.141 50.5867 285.728 49.2267 286.288 47.68C288.181 48.7733 290.381 49.6267 292.888 50.24C295.394 50.8533 297.728 51.16 299.888 51.16C302.101 51.16 303.661 50.9733 304.568 50.6C305.474 50.2 305.928 49.7733 305.928 49.32C305.928 47.6933 303.448 46.88 298.488 46.88C293.048 46.88 289.101 46.32 286.648 45.2C284.194 44.0533 282.968 42.2133 282.968 39.68C282.968 36.08 284.461 33.4267 287.448 31.72C290.434 30.0133 294.314 29.16 299.088 29.16C301.861 29.16 304.701 29.52 307.608 30.24C310.541 30.9333 313.181 31.8933 315.528 33.12C314.754 34.88 313.941 37.0267 313.088 39.56C312.928 40.0933 312.794 40.4933 312.688 40.76C311.328 39.6667 309.274 38.76 306.528 38.04C303.781 37.2933 301.354 36.92 299.248 36.92C296.714 36.92 295.008 37.0933 294.128 37.44C293.248 37.76 292.808 38.24 292.808 38.88C292.808 39.52 293.408 40.04 294.608 40.44C295.834 40.8133 297.594 41 299.888 41C305.541 41 309.648 41.6533 312.208 42.96C314.768 44.24 316.048 46.2133 316.048 48.88C316.048 52.6133 314.688 55.3067 311.968 56.96C309.248 58.5867 305.128 59.4 299.608 59.4C296.648 59.4 293.634 59.08 290.568 58.44C287.501 57.7733 284.741 56.8133 282.288 55.56ZM342.481 37.92C339.307 37.76 336.961 37.6667 335.441 37.64V51.32C336.987 51.2933 339.334 51.2 342.481 51.04V59H319.241V51.04C322.307 51.2 324.641 51.2933 326.241 51.32V37.64C324.641 37.6667 322.307 37.76 319.241 37.92V29.96H342.481V37.92ZM363.286 59.4C357.259 59.4 352.819 58.12 349.966 55.56C347.113 53 345.686 49.3467 345.686 44.6C345.686 39.8267 347.113 36.0533 349.966 33.28C352.819 30.5067 357.259 29.12 363.286 29.12C371.713 29.12 377.353 32.0133 380.206 37.8C377.806 38.6267 374.993 39.8667 371.766 41.52C370.993 40.0267 369.766 38.92 368.086 38.2C366.433 37.48 364.739 37.12 363.006 37.12C360.446 37.12 358.539 37.8 357.286 39.16C356.033 40.4933 355.406 42.1467 355.406 44.12C355.406 46.2533 356.073 48 357.406 49.36C358.766 50.6933 360.833 51.36 363.606 51.36C365.819 51.36 367.579 51 368.886 50.28C370.193 49.5333 371.153 48.36 371.766 46.76C373.953 47.9333 376.753 49.2533 380.166 50.72C378.833 53.9467 376.606 56.2 373.486 57.48C370.366 58.76 366.966 59.4 363.286 59.4ZM226.446 65.025C233.212 65.025 237.921 66.232 240.573 68.646C243.225 71.026 244.551 74.392 244.551 78.744C244.551 81.736 244.024 84.286 242.97 86.394C241.916 88.468 240.063 90.1 237.411 91.29C234.759 92.446 231.104 93.024 226.446 93.024H215.838V102H203.292C203.564 95.404 203.7 89.233 203.7 83.487C203.7 77.741 203.564 71.57 203.292 64.974H215.838V65.025H226.446ZM222.876 83.181C225.698 83.181 227.806 83.079 229.2 82.875C230.628 82.637 231.614 82.229 232.158 81.651C232.736 81.073 233.025 80.223 233.025 79.101C233.025 77.979 232.753 77.146 232.209 76.602C231.699 76.024 230.73 75.633 229.302 75.429C227.908 75.225 225.766 75.123 222.876 75.123H215.838V83.181H222.876ZM261.058 91.698C270.918 91.63 279.078 91.46 285.538 91.188C285.096 92.922 284.824 94.588 284.722 96.186C284.62 97.784 284.569 99.722 284.569 102H248.614C248.886 95.404 249.022 89.233 249.022 83.487C249.022 77.741 248.886 71.57 248.614 64.974H261.058V91.698ZM321.784 102C321.138 100.062 320.271 97.631 319.183 94.707H302.914L300.364 102H287.563L301.843 64.974H320.611L334.993 102H321.784ZM316.276 86.751C314.984 83.181 313.658 79.611 312.298 76.041L311.074 72.726C309.884 75.82 308.133 80.495 305.821 86.751H316.276ZM380.067 64.974L379.098 66.453C375.46 72.097 372.332 77.095 369.714 81.447C367.13 85.765 364.971 89.743 363.237 93.381V102H349.926V92.514C348.668 89.964 347.189 87.346 345.489 84.66C343.789 81.94 341.375 78.217 338.247 73.491C335.799 69.887 333.929 67.048 332.637 64.974H346.917C347.937 67.048 349.603 70.125 351.915 74.205C354.227 78.353 355.808 81.277 356.658 82.977C357.848 80.495 359.446 77.452 361.452 73.848C363.798 69.632 365.379 66.674 366.195 64.974H380.067Z" fill="#36C6CF"/>
</svg>
